<?xml version="1.0" encoding="utf-8"?>
<!-- Generator: Adobe Illustrator 24.0.0, SVG Export Plug-In . SVG Version: 6.00 Build 0)  -->
<svg version="1.1" id="Capa_1" xmlns="http://www.w3.org/2000/svg" xmlns:xlink="http://www.w3.org/1999/xlink" x="0px" y="0px"
	 viewBox="0 0 512 512" style="enable-background:new 0 0 512 512;" xml:space="preserve">
<style type="text/css">
	.st0{fill:#538DE4;}
</style>
<g>
	<g>
		<path class="st0" d="M497,192.8h-43c-3.5-11-8-21.8-13.3-32.1l30.4-30.4c2.8-2.8,4.4-6.6,4.4-10.6c0-4-1.6-7.8-4.4-10.6
			l-68.2-68.2c-5.9-5.9-15.4-5.9-21.2,0l-30.4,30.4C341,66,330.2,61.5,319.2,58V15c0-8.3-6.7-15-15-15h-96.4c-8.3,0-15,6.7-15,15v43
			c-11,3.5-21.8,8-32.1,13.3l-30.4-30.4c-5.9-5.9-15.4-5.9-21.2,0l-68.2,68.2c-2.8,2.8-4.4,6.6-4.4,10.6c0,4,1.6,7.8,4.4,10.6
			l30.4,30.4C66,171,61.5,181.8,58,192.8H15c-8.3,0-15,6.7-15,15v96.4c0,8.3,6.7,15,15,15h43c3.5,11,8,21.8,13.3,32.1l-30.4,30.4
			c-2.8,2.8-4.4,6.6-4.4,10.6c0,4,1.6,7.8,4.4,10.6l68.2,68.2c5.9,5.9,15.4,5.9,21.2,0l30.4-30.4c10.3,5.3,21.1,9.8,32.1,13.3v43
			c0,8.3,6.7,15,15,15h96.4c8.3,0,15-6.7,15-15v-43c11-3.5,21.8-8,32.1-13.3l30.4,30.4c5.9,5.9,15.4,5.9,21.2,0l68.2-68.2
			c5.9-5.9,5.9-15.4,0-21.2l-30.4-30.4c5.3-10.3,9.8-21.1,13.3-32.1h43c8.3,0,15-6.7,15-15v-96.4C512,199.5,505.3,192.8,497,192.8z
			 M482,289.2h-39.3c-6.8,0-12.8,4.6-14.5,11.3c-4.1,16-10.5,31.5-19,45.8c-3.5,5.9-2.5,13.4,2.3,18.2l27.8,27.8l-47,47l-27.8-27.8
			c-4.8-4.8-12.3-5.8-18.2-2.3c-14.4,8.5-29.8,14.9-45.8,19c-6.6,1.7-11.3,7.7-11.3,14.5V482h-66.4v-39.3c0-6.8-4.6-12.8-11.3-14.5
			c-16.1-4.1-31.5-10.5-45.8-19c-5.9-3.5-13.4-2.5-18.2,2.3l-27.8,27.8l-47-47l27.8-27.8c4.8-4.8,5.8-12.3,2.3-18.2
			c-8.5-14.4-14.9-29.8-19-45.8c-1.7-6.6-7.7-11.3-14.5-11.3H30v-66.4h39.3c6.8,0,12.8-4.6,14.5-11.3c4.1-16.1,10.5-31.5,19-45.8
			c3.5-5.9,2.5-13.4-2.3-18.2l-27.8-27.8l47-47l27.8,27.8c4.8,4.8,12.3,5.8,18.2,2.3c14.4-8.5,29.8-14.9,45.8-19
			c6.6-1.7,11.3-7.7,11.3-14.5V30h66.4v39.3c0,6.8,4.6,12.8,11.3,14.5c16.1,4.1,31.5,10.5,45.8,19c5.9,3.5,13.4,2.5,18.2-2.3
			l27.8-27.8l47,47l-27.8,27.8c-4.8,4.8-5.8,12.3-2.3,18.2c8.5,14.4,14.9,29.8,19,45.8c1.7,6.6,7.7,11.3,14.5,11.3H482V289.2z"/>
	</g>
</g>
<g>
	<g>
		<path class="st0" d="M324.2,170.1c-6.5-5.1-15.9-4.1-21.1,2.4l-41.9,52.8c-1.7-0.3-3.4-0.4-5.2-0.4c-17.1,0-31.1,13.9-31.1,31.1
			c0,17.1,13.9,31.1,31.1,31.1c8.3,0,16.1-3.2,22-9.1c5.9-5.9,9.1-13.7,9.1-22c0-4.2-0.8-8.2-2.4-12l41.9-52.8
			C331.7,184.7,330.7,175.3,324.2,170.1z"/>
	</g>
</g>
</svg>
