<?xml version="1.0" encoding="utf-8"?>
<!-- Generator: Adobe Illustrator 24.0.0, SVG Export Plug-In . SVG Version: 6.00 Build 0)  -->
<svg version="1.1" id="Layer_1" xmlns="http://www.w3.org/2000/svg" xmlns:xlink="http://www.w3.org/1999/xlink" x="0px" y="0px"
	 viewBox="0 0 512 510.8" style="enable-background:new 0 0 512 510.8;" xml:space="preserve">
<style type="text/css">
	.st0{fill:#4C82D2;}
</style>
<g>
	<g>
		<path class="st0" d="M242,510.8c0-9.9,0-19.8,0-30.7c-9,6.7-17.2,12.8-25.7,19.2c-6-8-11.9-15.8-18-23.8
			c13.6-10.3,26.8-20.4,40.2-30.3c2.7-2,3.9-4,3.8-7.4c-0.2-9.4-0.1-18.9-0.1-28.5c-44.6-5.4-80.7-25.2-108-60.3
			c-22.3-28.8-32.8-61.7-31.8-98.1c1.9-74.9,58.8-140.6,139.8-149.8c0-10.5,0.1-21.1-0.1-31.7c0-1.2-1.7-2.7-2.9-3.6
			c-12.2-9.3-24.5-18.4-36.7-27.6c-1.3-1-2.5-2-4.1-3.3c6-7.9,11.7-15.6,17.9-23.8c8.4,6.3,16.6,12.4,25.7,19.2
			c0-10.6,0-20.3,0-30.4c10.4,0,20,0,30,0c0,9.8,0,19.6,0,30.9c9.3-6.9,17.5-13.1,26.3-19.7c6,7.9,11.9,15.7,18.1,23.8
			c-5.5,4.1-10.8,8.1-16.1,12.1c-8.2,6.2-16.6,12.3-24.6,18.7c-1.8,1.4-3.3,4.2-3.3,6.4c-0.3,16.1-0.1,32.3-0.2,48.4
			c0,3,1.1,4.3,3.8,5.4c19.9,8.1,39.7,16.3,59.5,24.6c2.9,1.2,4.7,0.9,6.9-1.3c11.3-11.5,22.9-22.8,34.1-34.4
			c1.5-1.6,2.4-4.7,2.1-6.9c-1.9-15.2-4.2-30.3-6.3-45.4c-0.2-1.4-0.2-2.9-0.3-4.7c9.7-1.4,19.2-2.7,29.2-4.2
			c1.5,10.5,3,20.8,4.7,32.1c7.3-7.5,13.9-14.2,20.4-20.8c7.3,7.3,14,14.2,21.6,21.8c-6.5,6.2-13.3,12.7-21,20
			c11.5,1.7,21.6,3.1,32.3,4.7c-1.4,9.9-2.7,19.5-4.1,29.5c-14.9-2.1-29.4-3.7-43.8-6.2c-7.4-1.3-12.8-0.4-18.2,5.7
			c-9.2,10.5-19.6,20-29.6,29.7c-2.2,2.2-2.7,3.9-1.4,6.9c8.4,19.7,16.6,39.5,24.6,59.4c1.2,3.1,2.9,3.8,5.9,3.7
			c15.8-0.1,31.7-0.1,47.5,0c3.3,0,5.4-0.9,7.4-3.6c8.9-12.1,18-23.9,27-35.9c1.1-1.4,2.2-2.8,3.6-4.4c7.9,6,15.6,11.7,23.8,17.9
			c-6.4,8.5-12.6,16.8-19.5,26c10.6,0,20.1,0,29.7,0c0,10,0,20,0,29.9c-9.6,0-19.1,0-29.7,0c6.9,9.2,13.2,17.4,19.6,25.9
			c-8.2,6.2-15.9,12-23.8,17.9c-1.3-1.6-2.5-3-3.6-4.4c-9.1-12.1-18.2-24.2-27.5-36.2c-1.3-1.6-3.9-3.1-6-3.1
			c-16.3-0.3-32.7-0.1-49-0.2c-2.6,0-4.1,0.5-5.2,3.2c-8.2,20.2-16.5,40.3-25,60.3c-1.1,2.6-0.7,4.2,1.3,6.1
			c8.5,8.3,17.6,16,24.9,25.2c8.3,10.6,17.7,12.6,30.2,9.7c11.9-2.8,24.2-3.6,36.8-5.3c1.4,10.1,2.8,19.7,4.1,29.5
			c-10.8,1.6-20.9,3-31.8,4.6c7.4,7.1,14.2,13.7,20.5,19.8c-7.6,7.6-14.6,14.5-22,22c-6.3-6.4-12.9-13-20.1-20.3
			c-1.6,11.1-3.1,21.3-4.7,31.8c-10.1-1.4-19.6-2.8-29.2-4.2c0.1-1.9,0.1-3.4,0.3-4.8c2.1-15.1,4.4-30.3,6.3-45.4
			c0.3-2.2-0.6-5.3-2.2-6.9c-11.2-11.6-22.8-22.9-34.1-34.4c-2-2.1-3.7-2.5-6.5-1.3c-19.8,8.3-39.6,16.5-59.5,24.5
			c-3.2,1.3-4.1,3-4,6.3c0.2,15.5,0.2,30.9,0,46.4c-0.1,4,1.3,6.3,4.4,8.6c13.3,9.7,26.4,19.7,39.9,29.8c-6.1,8-11.9,15.8-18.1,23.9
			c-8.6-6.5-16.9-12.7-26.3-19.6c0,11.2,0,21.2,0,31.1C262,510.8,252,510.8,242,510.8z M272.6,157.1c0,20.9,0,40.8,0,59.9
			c14-14,28.2-28.1,42.5-42.4C301.4,168.9,287.2,163.1,272.6,157.1z M272.4,353.5c14.8-6.1,29.1-12,42.3-17.5
			c-14.4-14.3-28.5-28.4-42.3-42.2C272.4,312.7,272.4,332.6,272.4,353.5z M355.7,240.1c-6.2-14.9-12.1-29-17.4-41.9
			c-14.3,14.1-28.6,28.2-42.5,41.9C314.9,240.1,334.9,240.1,355.7,240.1z M355.6,270.5c-20.7,0-40.8,0-59.9,0
			c13.9,13.9,28.2,28.2,42.4,42.4C343.7,299.2,349.6,285,355.6,270.5z"/>
		<path class="st0" d="M0,240.3c17.6,0,35.3,0,53.3,0c0,10,0,19.6,0,29.9c-17.8,0-35.5,0-53.3,0C0,260.2,0,250.2,0,240.3z"/>
		<path class="st0" d="M111.1,150.8c-5.1,8.9-10,17.2-15,25.9c-24.3-14-48.2-27.8-72.6-41.9c5-8.7,9.9-17.1,15-25.9
			C62.8,122.9,86.7,136.7,111.1,150.8z"/>
		<path class="st0" d="M38.5,401.5c-5.1-8.8-9.9-17.2-15-25.9c24.3-14,48.2-27.8,72.6-41.9c5,8.7,9.9,17.1,15,25.9
			C86.9,373.6,62.9,387.4,38.5,401.5z"/>
		<path class="st0" d="M118.2,36c8.9-5.1,17.2-9.9,26-14.9c9,15.5,17.8,30.7,26.8,46.3c-8.6,4.9-17,9.8-26,14.9
			C136,66.8,127.2,51.6,118.2,36z"/>
		<path class="st0" d="M145,428.2c8.9,5.1,17.2,9.9,26,14.9c-8.9,15.4-17.7,30.6-26.8,46.3c-8.6-4.9-17.1-9.8-26-14.9
			C127.1,459.1,135.8,443.9,145,428.2z"/>
	</g>
</g>
</svg>
