<?xml version="1.0" encoding="utf-8"?>
<!-- Generator: Adobe Illustrator 24.0.0, SVG Export Plug-In . SVG Version: 6.00 Build 0)  -->
<svg version="1.1" id="Capa_1" xmlns="http://www.w3.org/2000/svg" xmlns:xlink="http://www.w3.org/1999/xlink" x="0px" y="0px"
	 viewBox="0 0 242 337" style="enable-background:new 0 0 242 337;" xml:space="preserve">
<g>
	<g>
		<path d="M227.6,111.4c-0.1,58.1-47.2,105.7-106,105.2c-61.4-0.5-104.1-48.9-104.9-105.3C15.8,52.8,63.8,5.8,122.6,6.1
			C180.7,6.3,227.6,53.4,227.6,111.4z M122.1,189.3c43.3,0.2,78.3-35.4,78.1-78.3c-0.3-42.9-35.2-77.7-78.1-77.7
			c-43.3,0-78.3,34.9-78.3,77.9C43.8,154.2,78.3,189.5,122.1,189.3z"/>
		<path d="M144.8,232.7c15-5.7,29.5-11.1,44.4-16.7c11.3,30.5,23,61.9,35.1,94.6c-10.6-4.8-20.3-9.2-30.4-13.7
			c-5.2,8.3-10.3,16.4-15.9,25.4C166.7,291.6,155.6,261.7,144.8,232.7z"/>
		<path d="M55.7,215.5c7.7,3.4,14.7,7,22,9.7c7.1,2.6,14.6,4.4,22.5,6.8c-11,29.7-22.1,59.7-33.5,90.3c-5.5-8.8-10.6-17-15.9-25.4
			c-9.9,4.5-19.5,8.8-30.3,13.8C32.5,278.2,44.1,246.9,55.7,215.5z"/>
		<path d="M107.7,157.9c-15.3-15.2-30.5-30.5-45.6-45.5c5.4-5.4,11-11,16.8-16.7c9,9.1,18.5,18.6,28.1,28.3
			c18.3-18.4,36-36.1,53.6-53.7c6.2,6.1,11.9,11.8,17.5,17.4C154.8,111.1,131.2,134.5,107.7,157.9z"/>
	</g>
</g>
</svg>
