<?xml version="1.0" encoding="utf-8"?>
<!-- Generator: Adobe Illustrator 24.0.0, SVG Export Plug-In . SVG Version: 6.00 Build 0)  -->
<svg version="1.1" id="Layer_1" xmlns="http://www.w3.org/2000/svg" xmlns:xlink="http://www.w3.org/1999/xlink" x="0px" y="0px"
	 viewBox="0 0 512 512" style="enable-background:new 0 0 512 512;" xml:space="preserve">
<style type="text/css">
	.st0{fill:#538DE4;}
</style>
<g>
	<g>
		<path class="st0" d="M209.9,360c-8.2,0-15.7,0.1-23.2,0c-14.7-0.1-24.7-10.2-24.8-24.9c-0.1-7.5,0-15,0-22.8
			c-1.9-0.1-3.5-0.2-5.1-0.2c-23.8,0-47.7,0-71.5-0.1c-3.1,0-4.9,0.7-6.6,3.7c-5.2,9.8-16.2,14.3-26.8,11.5c-10.6-2.8-18-12.2-18-23
			c-0.1-11.1,7.3-20.5,18.2-23.4c10.5-2.8,21.3,1.9,26.7,11.7c1.2,2.2,2.1,3.6,5.1,3.6c25.2-0.2,50.3-0.1,75.5-0.1
			c0.6,0,1.3-0.1,2.2-0.2c0-10.4,0-20.7,0-31.4c-1.2-0.1-2.4-0.4-3.7-0.4c-7.2,0-14.3,0.2-21.5-0.1c-5-0.2-8.2,0.7-11.1,5.6
			c-5.4,9.2-17.1,12.6-27.2,9.2c-10-3.4-16.7-13.2-16.2-23.9c0.4-10.5,7.9-19.5,18.5-22.1c10.1-2.5,21,1.9,26,11.2
			c1.8,3.4,3.8,4.3,7.3,4.2c9.1-0.2,18.3-0.1,27.8-0.1c0-10.7,0-21.1,0-31.8c-1.5-0.1-2.9-0.2-4.4-0.2c-24,0-48,0.1-72-0.1
			c-3.2,0-4.9,0.8-6.5,3.8c-5.2,9.7-16.3,14.2-26.8,11.4c-10.6-2.8-17.9-12.2-17.9-23.1c0-10.9,7.3-20.4,17.8-23.2
			c10.6-2.8,21.5,1.6,27,11.2c1.3,2.2,2,4,5.4,4c25-0.2,50-0.1,75-0.1c0.8,0,1.6-0.1,2.8-0.2c0-7.5,0-14.8,0-22.1
			c0.1-15.6,10.1-25.6,25.6-25.7c7.3,0,14.6,0,22.3,0c0-6.7,0.2-13-0.1-19.3c-0.1-1.4-1.4-2.9-2.5-4c-8.4-8.6-17.1-16.8-25.3-25.6
			c-2.1-2.3-3.2-6-3.9-9.2c-0.6-3-0.3-6.3-0.1-9.5c0.6-7.7,0.2-14-7.9-19.1c-8.7-5.5-10.2-17.6-6-27.1c4.2-9.4,14-15.2,24.2-14.2
			c10.3,1,18.9,8.7,21.2,19.1c2.2,9.7-2.2,20.4-11.2,25.2c-3.9,2.1-4,4.5-4.5,8.2c-1.6,11.6,2.1,20.4,11.4,27.6
			c6.1,4.8,11.5,10.7,16.6,16.6c2.2,2.5,3.7,6.3,4,9.6c0.6,6.9,0.2,14,0.2,21.4c10.6,0,21,0,32,0c0-10.4,0.1-20.8-0.2-31.2
			c0-1.3-2.4-2.7-4-3.7c-10.2-6.2-14.5-18.5-10.1-29.5c4.3-10.8,16-17.2,27.1-14.8c11.9,2.6,20,13.1,19.1,25.1
			c-0.6,8.6-4.8,15.2-12.4,19.3c-2.8,1.5-3.7,3.1-3.6,6.1c0.2,9.5,0.1,18.9,0.1,28.7c10.7,0,21,0,32,0c0-6.8,0.2-13.7-0.1-20.7
			c-0.2-4.5,1.4-7.9,4.6-11c8.4-8.1,16.6-16.4,24.7-24.8c1.5-1.6,2.1-4.2,2.7-6.4c0.4-1.6,0-3.3,0.1-5c0.3-7.2,0.7-13.4-7.6-18.2
			c-8.9-5.2-10.5-17.3-6.5-26.9C328,28.9,338,23,348.4,24c10.2,1,18.5,8.4,21,18.7c2.4,10-1.9,20.7-11.1,25.7
			c-3.6,1.9-4.5,4.1-4.3,7.7c0.3,6,0.4,12-0.1,18c-0.3,3-1.6,6.6-3.6,8.8c-8.3,8.9-17.2,17.2-25.6,26c-1.4,1.5-2.4,3.9-2.5,6
			c-0.3,5.5-0.1,11-0.1,17.1c7.2,0,14.2,0,21.1,0c17.4,0,26.9,9.5,26.9,26.9c0,6.8,0,13.6,0,20.9c1.9,0.1,3.5,0.2,5,0.2
			c23.8,0,47.7,0,71.5,0.1c3.1,0,5-0.5,6.6-3.6c5.2-9.8,16.1-14.4,26.7-11.6c10.6,2.8,18,12.1,18.1,23c0.1,11.1-7.3,20.6-18.1,23.5
			c-10.5,2.8-21.3-1.9-26.8-11.6c-1.2-2.1-2-3.7-5-3.7c-25.3,0.2-50.7,0.1-76,0.1c-0.5,0-1,0.2-1.7,0.3c0,10.4,0,20.8,0,31.7
			c10.5,0,20.8,0.1,31.1-0.2c1.2,0,2.7-2,3.5-3.4c5.8-10,16.8-14.6,27.8-11.5c10.7,3.1,18,13.4,17.3,24.6
			c-0.7,11-9.3,20.4-20.4,22.2c-9.7,1.6-19.7-3.3-24.6-12.5c-1.4-2.7-3-3.4-5.8-3.3c-9.5,0.1-19,0.1-28.8,0.1c0,10.6,0,21,0,31.7
			c1.2,0.1,2.5,0.3,3.8,0.3c24.3,0,48.7,0,73,0.1c2.7,0,4.4-0.6,5.8-3.3c5.7-10.4,16.6-14.9,27.5-11.8c10.3,2.9,17.5,12.4,17.5,23
			c0,11-7.3,20.4-17.8,23.2c-11.1,3-21.4-1.7-27.5-12.1c-0.8-1.3-2.5-2.9-3.8-2.9c-25.8-0.1-51.7-0.1-77.5,0c-0.3,0-0.6,0.2-1.3,0.6
			c0,7.1,0,14.4,0,21.7c-0.1,15.6-10.1,25.6-25.7,25.7c-7.3,0-14.6,0-22.3,0c0,6.7-0.2,13,0.1,19.3c0.1,1.4,1.5,2.8,2.6,4
			c8.4,8.6,17.1,16.9,25.3,25.6c2.1,2.3,3.2,6,3.8,9.2c0.6,3,0.3,6.3,0.1,9.5c-0.4,7.7-0.1,14,8,19.1c8.6,5.4,10.2,17.7,5.9,27.1
			c-4.2,9.4-14.1,15.2-24.3,14.1c-10.3-1-18.9-8.7-21.2-19.1c-2.1-9.6,2.3-20.4,11.2-25.2c3.6-1.9,4-4.1,4.5-7.7
			c1.7-12-2.2-21-11.8-28.5c-6.1-4.8-11.5-10.7-16.6-16.6c-2-2.3-3.4-5.7-3.6-8.8c-0.5-7.1-0.2-14.3-0.2-21.8c-10.6,0-21,0-32,0
			c0,10.4-0.1,20.9,0.2,31.3c0,1.2,2.2,2.5,3.6,3.4c9.4,5.5,14.1,16.2,11.5,26.5c-2.7,10.8-11.9,18.3-22.7,18.5
			c-10.8,0.2-20.6-6.9-23.6-17.3c-3.1-10.7,1.3-22.2,11.1-27.4c3.3-1.7,4-3.6,4-6.9c-0.2-9.3-0.1-18.6-0.1-28.1c-10.8,0-21,0-32,0
			c0,5.9-0.4,11.8,0.1,17.7c0.5,6.5-1.5,11.4-6.4,15.8c-7.9,7.2-15.3,14.9-22.6,22.6c-1.7,1.8-2.3,4.8-3,7.3c-0.5,1.7,0,3.7-0.1,5.5
			c-0.5,6.9-0.1,12.4,7.3,16.8c8.8,5.3,10.8,17.2,6.9,26.9c-3.9,9.8-13.7,15.8-24.2,15c-10.4-0.8-19-8.4-21.4-18.8
			c-2.3-9.9,2-20.7,11.1-25.6c3.6-1.9,4.4-4.1,4.3-7.8c-0.2-5.8-0.5-11.7,0.1-17.5c0.4-3.3,1.8-7.2,4-9.6
			c7.9-8.6,16.3-16.7,24.7-24.8c2.4-2.3,3.3-4.6,3.2-7.9C209.8,370.9,209.9,365.8,209.9,360z M193.9,48.3c0.3-4.3-3.2-8.1-7.6-8.4
			c-4.3-0.2-8.1,3.2-8.4,7.6c-0.2,4.3,3.2,8.2,7.5,8.4C189.8,56.1,193.6,52.6,193.9,48.3z M353.9,47.8c-0.1-4.3-3.7-7.9-8-7.8
			c-4.5,0-8.2,3.8-8,8.3c0.2,4.3,3.9,7.7,8.2,7.6C350.5,55.7,354,52.1,353.9,47.8z M273.9,96c0-4.4-3.6-8-7.9-8c-4.3,0-8,3.6-8,7.9
			c0,4.3,3.6,8,7.9,8C270.2,103.9,273.9,100.3,273.9,96z M57.8,215.9c4.3,0,8-3.5,8-7.9c0.1-4.3-3.5-8-7.9-8c-4.3-0.1-8,3.6-8,7.9
			C49.9,212.3,53.5,215.9,57.8,215.9z M482,208.1c0.1-4.3-3.4-8-7.7-8.1c-4.5-0.2-8.3,3.5-8.3,8.1c0,4.3,3.6,7.9,7.9,7.9
			C478.2,216,481.9,212.4,482,208.1z M105.9,264c4.3,0,8-3.6,8-7.9c0-4.3-3.6-8-7.9-8c-4.3,0-8,3.6-8,7.9
			C97.9,260.3,101.5,263.9,105.9,264z M426,264c4.3,0,7.9-3.6,8-7.8c0.1-4.3-3.4-8-7.7-8.1c-4.5-0.1-8.3,3.6-8.2,8.1
			C418.1,260.4,421.7,264,426,264z M57.8,312c4.3,0.1,8-3.5,8.1-7.8c0.1-4.3-3.5-8-7.8-8.1c-4.3-0.1-8,3.5-8.1,7.8
			C49.8,308.2,53.4,311.9,57.8,312z M473.8,296c-4.3,0.1-7.9,3.8-7.8,8.2c0.1,4.4,3.8,7.9,8.1,7.8c4.3-0.1,7.9-3.8,7.8-8.2
			C481.8,299.5,478.1,295.9,473.8,296z M265.9,424c4.3,0,7.9-3.5,8-7.8c0.1-4.5-3.7-8.2-8.2-8.1c-4.3,0.1-7.8,3.8-7.7,8.1
			C258,420.5,261.6,424,265.9,424z M185.9,456.1c-4.3,0-7.9,3.6-7.9,7.9c-0.1,4.3,3.4,8,7.7,8.1c4.5,0.1,8.3-3.6,8.2-8.1
			C193.8,459.6,190.2,456.1,185.9,456.1z M345.8,472.1c4.3,0.1,8-3.4,8.2-7.8c0.1-4.3-3.4-8.1-7.7-8.2c-4.4-0.1-8,3.4-8.2,7.8
			C337.9,468.2,341.4,471.9,345.8,472.1z"/>
	</g>
</g>
</svg>
