<?xml version="1.0" encoding="utf-8"?>
<!-- Generator: Adobe Illustrator 24.0.0, SVG Export Plug-In . SVG Version: 6.00 Build 0)  -->
<svg version="1.1" id="Capa_1" xmlns="http://www.w3.org/2000/svg" xmlns:xlink="http://www.w3.org/1999/xlink" x="0px" y="0px"
	 viewBox="0 0 512 512" style="enable-background:new 0 0 512 512;" xml:space="preserve">
<g>
	<g>
		<path d="M256,0L138.2,108.1h61.9v75.6c21.1,1.8,40.4,10,55.9,22.7c15.2-12.4,33.9-20.5,54.4-22.6v-75.7h63.4L256,0z"/>
	</g>
</g>
<g>
	<g>
		<path d="M439.8,269.4c11.4-12.8,18.3-29.7,18.3-48.2c0-40.1-32.6-72.6-72.6-72.6c-26.2,0-49.1,13.9-61.9,34.7
			c55.3,1.5,99.8,46.9,99.8,102.6c0,12.3-2.2,24.5-6.5,35.8c22.1,15,39.1,36.3,48.9,60.9l44.4,0v-15h0
			C510.2,322.1,480.7,283.3,439.8,269.4z"/>
	</g>
</g>
<g>
	<g>
		<path d="M188.4,183.3c-12.8-20.8-35.8-34.7-61.9-34.7c-40.1,0-72.6,32.6-72.6,72.6c0,18.5,6.9,35.3,18.3,48.2
			c-40.9,13.9-70.4,52.7-70.4,98.2v15l44.4,0C56,358,73,336.7,95.1,321.7c-4.2-11.4-6.5-23.5-6.5-35.8
			C88.6,230.3,133.1,184.8,188.4,183.3z"/>
	</g>
</g>
<g>
	<g>
		<path d="M375,334.1c11.4-12.8,18.3-29.7,18.3-48.2c0-40.1-32.6-72.6-72.6-72.6c-26.2,0-49.2,13.9-62,34.8
			c55.3,1.5,99.9,46.9,99.9,102.6c0,12.7-2.3,25.1-6.8,36.8c21.4,15,37.9,35.9,47.6,59.9l46-0.1v-15
			C445.4,386.8,415.9,348,375,334.1z"/>
	</g>
</g>
<g>
	<g>
		<path d="M253.2,248.1c-12.8-20.9-35.8-34.8-62-34.8c-40.1,0-72.6,32.6-72.6,72.6c0,18.5,6.9,35.3,18.3,48.2
			c-40.9,13.9-70.4,52.7-70.4,98.2v15l46.3,0.1c9.6-24,26.1-44.8,47.4-59.8c-4.5-11.7-6.9-24.2-6.9-36.9
			C153.4,295,197.9,249.5,253.2,248.1z"/>
	</g>
</g>
<g>
	<g>
		<path d="M309.9,399.2c11.6-12.9,18.7-29.9,18.7-48.6c0-40-32.6-72.6-72.6-72.6s-72.6,32.6-72.6,72.6c0,18.7,7.1,35.8,18.8,48.7
			C162,413.6,133.2,452,133.2,497v15h245.8v-15C379.1,451.9,350.2,413.5,309.9,399.2z"/>
	</g>
</g>
</svg>
