<?xml version="1.0" encoding="utf-8"?>
<!-- Generator: Adobe Illustrator 24.0.0, SVG Export Plug-In . SVG Version: 6.00 Build 0)  -->
<svg version="1.1" id="Capa_1" xmlns="http://www.w3.org/2000/svg" xmlns:xlink="http://www.w3.org/1999/xlink" x="0px" y="0px"
	 viewBox="0 0 512 512" style="enable-background:new 0 0 512 512;" xml:space="preserve">
<style type="text/css">
	.st0{fill:#538DE4;}
</style>
<path class="st0" d="M405.6,255.9V2.7H108.2v253.4c0,1.1-0.9,2-2,2H4.5c1.2,0.7,2.4,1.4,3.4,2.5c72,71.8,150,149.5,245.4,244.8
	c1,1,1.9,2.2,2.7,3.3c0.2,0.2,0.3,0.4,0.5,0.7h0.1c0.3-0.4,0.7-0.9,1-1.3c1.2-1.5,2.4-3,3.8-4.4c57.9-57.9,115.9-115.7,173.9-173.6
	l70.7-70.6c0.5-0.5,1-1,1.5-1.6h-99.9C406.5,257.9,405.6,257,405.6,255.9z M413.8,294c0.8,0,1.5,0.5,1.8,1.2
	c0.3,0.7,0.1,1.6-0.4,2.2l-157.3,157c-0.4,0.4-0.9,0.6-1.4,0.6c-0.5,0-1-0.2-1.4-0.6L98.3,297.6c-0.6-0.6-0.7-1.4-0.4-2.2
	c0.3-0.7,1-1.2,1.8-1.2h44.6V40.5c0-1.1,0.9-2,2-2h221.2c1.1,0,2,0.9,2,2V294H413.8z"/>
<path class="st0" d="M289.9,216.2c-5.6-3.7-11.7-7.1-17.6-10.3c-3.9-2.1-7.8-4.3-11.7-6.6c-0.8-0.5-1.5-0.9-2.3-1.4
	c-5.1-3-10.5-6.2-14.9-10.3c-5-4.6-7-10.6-5.7-16.5c1.4-6.1,6.3-11,13-13c10.1-3,18.5,1.7,22.5,12.7h35.9
	c0.2-17.9-12.5-36.5-30.8-44.7c-3.7-1.7-5.1-3.8-5-7.7c0.2-6.6,0.1-13.4,0.1-19.9c0-2,0-3.9,0-5.9h-36c0,2,0,4.1,0,6.1
	c0,6.8-0.1,13.1,0.1,19.6c0.1,4.3-1.4,6.8-5.2,8.6c-16.8,8.1-27.9,22.8-30.5,40.3c-2.6,17.2,3.7,34.2,17.1,46.6
	c5.9,5.5,13.2,9.9,20.2,14.2c2.2,1.3,4.4,2.7,6.6,4.1c4.1,2.6,8.5,5.2,12.6,7.6c4.6,2.7,9.3,5.4,13.8,8.4c5.3,3.4,7.8,8.6,7.3,14.6
	c-1,10.5-10.2,19.9-20.6,21.1c-10.8,1.2-21.1-5.6-24.3-16.2c-0.4-1.3-0.7-2.7-1-3.9c0,0,0-0.1,0-0.1h-35.9c0,0.1,0,0.2,0,0.2
	c0,1.2,0,2.2,0.1,3.2c3,22.5,14.8,38.6,35.2,47.9c3.7,1.7,6,3.8,5.8,8.8c-0.2,5.9-0.2,11.7-0.1,17.9c0,1.8,0,3.7,0,5.6h5.2
	c10.2,0,20.1,0,30,0c0.2,0,0.5,0,0.9-0.1c0-1.9,0-3.8,0-5.6c0-6.1,0.1-11.8-0.1-17.6c-0.1-4.1,0.8-7.1,5.8-9.3
	c24.9-11.2,39.3-38,34.3-63.9C311.8,236.7,303.8,225.4,289.9,216.2z"/>
</svg>
