<?xml version="1.0" encoding="utf-8"?>
<!-- Generator: Adobe Illustrator 24.0.0, SVG Export Plug-In . SVG Version: 6.00 Build 0)  -->
<svg version="1.1" id="Capa_1" xmlns="http://www.w3.org/2000/svg" xmlns:xlink="http://www.w3.org/1999/xlink" x="0px" y="0px"
	 viewBox="0 0 512 512" style="enable-background:new 0 0 512 512;" xml:space="preserve">
<style type="text/css">
	.st0{fill:#4C82D2;}
</style>
<g>
	<path class="st0" d="M369.9,280.4l-34.1,34.1l0,0L99.9,78.7L118,60.6L42.9,0L0,42.9L60.6,118l18.1-18.1l235.8,235.8l-34.1,34.1
		l48.7,48.7l89.5-89.5L369.9,280.4z"/>
	<path class="st0" d="M439.8,350.3l-89.5,89.5l53.7,53.7c12,12,27.8,18.5,44.7,18.5c16.9,0,32.8-6.6,44.7-18.5
		c24.7-24.7,24.7-64.8,0-89.5L439.8,350.3z"/>
</g>
<path class="st0" d="M259.1,322.8l-69.9-69.9L138.1,304c-37.6-11.8-78.6-1.9-106.9,26.4C11.1,350.5,0,377.2,0,405.6
	c0,28.4,11.1,55.1,31.2,75.2c20.7,20.7,48,31.1,75.2,31.1s54.5-10.4,75.2-31.1c28.3-28.3,38.1-69.3,26.4-106.9L259.1,322.8z
	 M130.7,430c-13.4,13.4-35.2,13.4-48.7,0c-13.4-13.4-13.4-35.2,0-48.7c13.4-13.4,35.2-13.4,48.7,0
	C144.2,394.7,144.2,416.5,130.7,430z"/>
<g>
	<path class="st0" d="M505,64.2l-8.4-21.3L443,96.5l-21.7-5.8L415.5,69l53.7-53.7L447.8,7c-37.4-14.7-80-5.8-108.4,22.6
		c-26,26-35.7,63.9-25.8,98.9l-60.8,60.8l69.9,69.9l60.8-60.8c9,2.5,18.2,3.8,27.4,3.8c26.3,0,52.2-10.3,71.5-29.6
		C510.8,144.1,519.7,101.6,505,64.2L505,64.2z"/>
</g>
</svg>
