<?xml version="1.0" encoding="utf-8"?>
<!-- Generator: Adobe Illustrator 24.0.0, SVG Export Plug-In . SVG Version: 6.00 Build 0)  -->
<svg version="1.1" id="Capa_1" xmlns="http://www.w3.org/2000/svg" xmlns:xlink="http://www.w3.org/1999/xlink" x="0px" y="0px"
	 viewBox="0 0 512 512" style="enable-background:new 0 0 512 512;" xml:space="preserve">
<style type="text/css">
	.st0{fill:#538DE4;}
</style>
<g>
	<path class="st0" d="M25.2,195.9L0,511.1h148l-33.6-315.2H25.2z"/>
	<path class="st0" d="M31.2,120.8l-3.6,45.1h83.6l-4.8-45.1L31.2,120.8z"/>
	<path class="st0" d="M470.9,210.9l-80.5,97.3v-97.3h-41.1l-84.8,102v-102h-41.1l-68.3,82.9l10.4,97.4h46.1v30h-42.9l9.6,90.1H512
		V210.9H470.9z M301.7,421.2h-60.1v-30h60.1V421.2z M391.8,421.2h-60.1v-30h60.1V421.2z M482,421.2h-60.1v-30H482V421.2z"/>
	<path class="st0" d="M133.4,90.8l10.1,94.8c15.6-1.4,30.4-7.3,42.6-17c13.7,8,29.4,12.3,45.4,12.3c24.9,0,48.4-10.3,65.3-28
		c10.8,5.2,22.6,8,34.9,8c17.6,0,34.7-5.9,48.6-16.4c11.6,7.4,25.1,11.4,39.1,11.4c40,0,72.6-32.6,72.6-72.6s-32.6-72.6-72.6-72.6
		c-12.5,0-24.7,3.2-35.5,9.3C369.5,7.5,351.1,0.6,331.7,0.6c-17.6,0-34.6,5.8-48.4,16.3c-15.1-10.6-33-16.3-51.7-16.3
		c-25.9,0-50.2,11-67.2,30.1c-8.9-3.3-18.4-5-27.9-5c-39,0-71.6,28.1-78.7,65.1L133.4,90.8z"/>
</g>
</svg>
