<?xml version="1.0" encoding="utf-8"?>
<!-- Generator: Adobe Illustrator 24.0.0, SVG Export Plug-In . SVG Version: 6.00 Build 0)  -->
<svg version="1.1" id="Capa_1" xmlns="http://www.w3.org/2000/svg" xmlns:xlink="http://www.w3.org/1999/xlink" x="0px" y="0px"
	 viewBox="0 0 512 512" style="enable-background:new 0 0 512 512;" xml:space="preserve">
<style type="text/css">
	.st0{fill:#538DE4;}
</style>
<g>
	<path class="st0" d="M154.9,210h47.4v212h-47.4V210z"/>
	<path class="st0" d="M232.3,210h47.4v212h-47.4V210z"/>
	<path class="st0" d="M309.7,210h47.4v212h-47.4V210z"/>
	<path class="st0" d="M77.4,210h47.4v212H77.4V210z"/>
	<path class="st0" d="M387.1,210h47.4v212h-47.4V210z"/>
	<path class="st0" d="M0,150h512v30H0V150z"/>
	<path class="st0" d="M500.5,120L256,0L11.5,120H500.5z"/>
	<path class="st0" d="M464.6,210H512v212h-47.4L464.6,210z"/>
	<path class="st0" d="M0,452h512v60H0V452z"/>
	<path class="st0" d="M0,210h47.4v212H0V210z"/>
</g>
</svg>
