<?xml version="1.0" encoding="utf-8"?>
<!-- Generator: Adobe Illustrator 24.0.0, SVG Export Plug-In . SVG Version: 6.00 Build 0)  -->
<svg version="1.1" id="Layer_1" xmlns="http://www.w3.org/2000/svg" xmlns:xlink="http://www.w3.org/1999/xlink" x="0px" y="0px"
	 viewBox="0 0 416.1 448.2" style="enable-background:new 0 0 416.1 448.2;" xml:space="preserve">
<style type="text/css">
	.st0{fill:#538DE4;}
</style>
<g>
	<g>
		<path class="st0" d="M304.1,224.2c0,60.4,0,120.7,0,181.1c0,26.4-16.7,43-43.2,43c-72.7,0-145.4,0-218,0
			C16.8,448.2,0,431.5,0,405.4C0,284.6,0,163.7,0,42.8c0-26,16.8-42.8,42.9-42.8c72.7,0,145.4,0,218,0c26.5,0,43.1,16.7,43.1,43
			C304.1,103.4,304.1,163.8,304.1,224.2z M152.1,104.1C152.1,104.1,152.1,104.1,152.1,104.1c33.8,0,67.6,0,101.4,0
			c7.8,0,10.5-2.7,10.5-10.5c0-17,0-34,0-51c0-7.9-2.5-10.5-10.4-10.5c-67.8,0-135.6,0-203.4,0c-7.5,0-10.3,2.7-10.3,10.2
			c0,16.8,0,33.7,0,50.5c0,8.9,2.4,11.3,11.2,11.3C84.8,104.1,118.5,104.1,152.1,104.1z M264.1,352.2c0-15.5,0-31,0-46.5
			c0-6.5-2.9-9.5-9.5-9.5c-15-0.1-30,0-45,0c-6.6,0-9.5,2.9-9.5,9.4c0,30.8,0,61.7,0,92.5c0,7.2,2.8,10,10,10c14.7,0,29.3,0,44,0
			c7.2,0,10-2.8,10-10C264.1,382.9,264.1,367.5,264.1,352.2z M71.6,216.1c7.7,0,15.3,0.1,23,0c6.5-0.1,9.4-3,9.5-9.5
			c0.1-9.7,0.1-19.3,0-29c0-6.5-3-9.4-9.5-9.4c-15-0.1-30-0.1-45,0c-6.5,0-9.4,2.9-9.5,9.5c-0.1,9.7-0.1,19.3,0,29
			c0.1,6.5,3,9.4,9.5,9.5C56.9,216.2,64.2,216.1,71.6,216.1z M152,168.1C152,168.1,152,168.1,152,168.1c-7.7,0-15.3-0.1-23,0
			c-5.9,0.1-8.9,3.1-9,9c-0.1,9.8-0.1,19.7,0,29.5c0.1,6.5,2.9,9.4,9.5,9.5c15,0.1,30,0.1,45,0c6.5,0,9.4-3,9.4-9.5
			c0.1-9.7,0.1-19.3,0-29c0-6.5-3-9.4-9.5-9.4C167,168.1,159.5,168.1,152,168.1z M232,168.2C232,168.1,232,168.1,232,168.2
			c-7.5,0-15-0.1-22.5,0c-6.5,0.1-9.4,2.9-9.5,9.5c-0.1,9.7-0.1,19.3,0,29c0,6.5,3,9.5,9.5,9.5c15,0.1,30,0.1,45,0
			c6.5,0,9.5-3,9.5-9.5c0.1-9.7,0.1-19.3,0-29c0-6.5-3-9.4-9.5-9.5C247,168.1,239.5,168.2,232,168.2z M71.7,280.1
			C71.7,280.2,71.7,280.2,71.7,280.1c7.7,0,15.3,0.1,23,0c6.3-0.1,9.2-3,9.3-9.2c0.1-9.8,0.1-19.7,0-29.5c-0.1-6.3-3-9.2-9.2-9.3
			c-15.2-0.1-30.3-0.1-45.5,0c-6.3,0-9.2,3-9.3,9.2c-0.1,9.8-0.1,19.7,0,29.5c0,6.3,2.9,9.2,9.2,9.3
			C56.7,280.2,64.2,280.1,71.7,280.1z M152,232.2c-7.5,0-15-0.1-22.5,0c-6.5,0.1-9.4,2.9-9.5,9.5c-0.1,9.7-0.1,19.3,0,29
			c0,6.5,2.9,9.5,9.5,9.5c15,0.1,30,0.1,45,0c6.5,0,9.5-3,9.5-9.5c0.1-9.7,0.1-19.3,0-29c-0.1-6.5-3-9.4-9.5-9.5
			C167,232.1,159.5,232.2,152,232.2z M232,232.2c-7.7,0-15.3-0.1-23,0c-5.9,0.1-8.9,3.1-8.9,9c-0.1,9.8-0.1,19.7,0,29.5
			c0,6.5,3,9.4,9.5,9.4c15,0.1,30,0.1,45,0c6.5,0,9.4-3,9.4-9.5c0.1-9.7,0.1-19.3,0-29c0-6.5-3-9.4-9.5-9.4
			C247,232.1,239.5,232.2,232,232.2z M72,344.2c7.5,0,15,0.1,22.5,0c6.5-0.1,9.5-3,9.5-9.5c0.1-9.7,0.1-19.3,0-29
			c0-6.5-2.9-9.5-9.5-9.5c-15-0.1-30-0.1-45,0c-6.5,0-9.5,3-9.5,9.5c-0.1,9.7-0.1,19.3,0,29c0,6.5,2.9,9.4,9.5,9.5
			C57,344.3,64.5,344.2,72,344.2z M151.7,344.2C151.7,344.2,151.7,344.2,151.7,344.2c7.7,0,15.3,0,23,0c6.2-0.1,9.2-3,9.3-9.2
			c0.1-9.8,0.1-19.7,0-29.5c0-6.2-3-9.2-9.2-9.3c-15.2-0.1-30.3-0.1-45.5,0c-6.3,0-9.2,3-9.3,9.2c-0.1,9.8-0.1,19.7,0,29.5
			c0,6.2,3,9.2,9.2,9.3C136.7,344.3,144.2,344.2,151.7,344.2z M72,360.2c-7.5,0-15-0.1-22.5,0c-6.5,0.1-9.4,2.9-9.5,9.5
			c-0.1,9.7-0.1,19.3,0,29c0,6.5,2.9,9.5,9.5,9.5c15,0.1,30,0.1,45,0c6.5,0,9.4-3,9.5-9.5c0.1-9.7,0.1-19.3,0-29
			c0-6.5-3-9.4-9.5-9.5C87,360.2,79.5,360.2,72,360.2z M152.1,408.2c7.5,0,15,0.1,22.5,0c6.5-0.1,9.4-3,9.5-9.5
			c0.1-9.7,0.1-19.3,0-29c0-6.5-3-9.4-9.5-9.5c-15-0.1-30-0.1-45,0c-6.5,0-9.4,2.9-9.5,9.5c-0.1,9.7-0.1,19.3,0,29
			c0.1,6.6,2.9,9.4,9.5,9.5C137.1,408.3,144.6,408.2,152.1,408.2z"/>
		<path class="st0" d="M392.2,255.9c-21.8,0-42.7,0-64.2,0c0-1.7,0-3.2,0-4.6c0-72.2,0-144.4,0-216.5c0-7,1.1-8.6,8-11.2
			c0-4.9-0.1-9.8,0-14.8c0.1-5.6,3.1-8.7,8.7-8.7C355,0,365.1,0,375.3,0.1c5.6,0.1,8.6,3.1,8.8,8.7c0.1,4.8,0,9.7,0,14.7
			c13.5,4.2,5.7,15.7,8.8,24.6c4.3,0,9.2-0.1,14.1,0c6,0.1,9.1,3,9.1,8.9c0.1,36.5,0,73,0,109.5c0,0.3-0.1,0.6-0.3,1.3
			c-5,0-10,0-15.6,0c0-34.4,0-68.8,0-103.5c-2.8,0-5.1,0-7.9,0C392.2,128.1,392.2,191.8,392.2,255.9z"/>
		<path class="st0" d="M391.7,376c-21.3,0-42.2,0-63.4,0c0-34.5,0-68.8,0-103.4c21,0,42,0,63.4,0C391.7,306.8,391.7,341.2,391.7,376
			z"/>
		<path class="st0" d="M389.3,392.5c-7.4,17.2-14.5,34.1-22.1,50.7c-1,2.3-4.8,4.5-7.3,4.6c-2.3,0.1-5.9-2.3-6.9-4.5
			c-7.6-16.6-14.6-33.5-22.1-50.8C350.5,392.5,369.5,392.5,389.3,392.5z"/>
	</g>
</g>
</svg>
