<?xml version="1.0" encoding="utf-8"?>
<!-- Generator: Adobe Illustrator 24.0.0, SVG Export Plug-In . SVG Version: 6.00 Build 0)  -->
<svg version="1.1" id="Layer_1" xmlns="http://www.w3.org/2000/svg" xmlns:xlink="http://www.w3.org/1999/xlink" x="0px" y="0px"
	 viewBox="0 0 512 512" style="enable-background:new 0 0 512 512;" xml:space="preserve">
<style type="text/css">
	.st0{fill:#4C82D2;}
</style>
<path class="st0" d="M406,352.2l19.4,19.4l21.2-21.2L391,294.8l-55.6,55.6l21.2,21.2l19.4-19.4V451H256v30h150V352.2z"/>
<path class="st0" d="M256,30H106v128.8l-19.4-19.4l-21.2,21.2l55.6,55.6l55.6-55.6l-21.2-21.2L136,158.8V60h120V30z"/>
<path class="st0" d="M31,481v31h180v-31c0-49.6-40.4-90-90-90S31,431.4,31,481z"/>
<path class="st0" d="M166,316c0,24.9-20.1,45-45,45s-45-20.1-45-45s20.1-45,45-45S166,291.1,166,316z"/>
<path class="st0" d="M481,210c0-49.6-40.4-90-90-90s-90,40.4-90,90v31h180V210z"/>
<path class="st0" d="M436,45c0,24.9-20.1,45-45,45s-45-20.1-45-45s20.1-45,45-45S436,20.1,436,45z"/>
</svg>
