<?xml version="1.0" encoding="utf-8"?>
<!-- Generator: Adobe Illustrator 24.0.0, SVG Export Plug-In . SVG Version: 6.00 Build 0)  -->
<svg version="1.1" id="Capa_1" xmlns="http://www.w3.org/2000/svg" xmlns:xlink="http://www.w3.org/1999/xlink" x="0px" y="0px"
	 viewBox="0 0 512 512" style="enable-background:new 0 0 512 512;" xml:space="preserve">
<g>
	<circle cx="136" cy="332" r="60"/>
	<path d="M31,497c0,8.3,6.7,15,15,15h180c8.3,0,15-6.7,15-15c0-57.9-47.1-105-105-105S31,439.1,31,497z"/>
	<circle cx="376" cy="332" r="60"/>
	<path d="M271,497c0,8.3,6.7,15,15,15h180c8.3,0,15-6.7,15-15c0-57.9-47.1-105-105-105S271,439.1,271,497z"/>
	<path d="M467,0H45C20.2,0,0,20.2,0,45v120c0,24.8,20.2,45,45,45h53.8l25.6,25.6c5.9,5.9,15.4,5.9,21.2,0l25.6-25.6h169.6l25.6,25.6
		c5.9,5.9,15.4,5.9,21.2,0l25.6-25.6H467c24.8,0,45-20.2,45-45V45C512,20.2,491.8,0,467,0z M195,150H75c-8.3,0-15-6.7-15-15
		s6.7-15,15-15h120c8.3,0,15,6.7,15,15S203.3,150,195,150z M195,90H75c-8.3,0-15-6.7-15-15s6.7-15,15-15h120c8.3,0,15,6.7,15,15
		S203.3,90,195,90z M437,150H317c-8.3,0-15-6.7-15-15s6.7-15,15-15h120c8.3,0,15,6.7,15,15S445.3,150,437,150z M437,90H317
		c-8.3,0-15-6.7-15-15s6.7-15,15-15h120c8.3,0,15,6.7,15,15S445.3,90,437,90z"/>
</g>
</svg>
