<?xml version="1.0" encoding="utf-8"?>
<!-- Generator: Adobe Illustrator 24.0.0, SVG Export Plug-In . SVG Version: 6.00 Build 0)  -->
<svg version="1.1" id="Layer_1" xmlns="http://www.w3.org/2000/svg" xmlns:xlink="http://www.w3.org/1999/xlink" x="0px" y="0px"
	 viewBox="0 0 512 512" style="enable-background:new 0 0 512 512;" xml:space="preserve">
<style type="text/css">
	.st0{fill:#538DE4;}
</style>
<g id="surface1">
	<path class="st0" d="M301,391h-30v15c0,8.3-6.7,15-15,15s-15-6.7-15-15v-15h-30v121h90V391z"/>
	<path class="st0" d="M421,391h-30v15c0,8.3-6.7,15-15,15s-15-6.7-15-15v-15h-30v121h90V391z"/>
	<path class="st0" d="M361,271h-30v15c0,8.3-6.7,15-15,15s-15-6.7-15-15v-15h-30v90c10.1,0,94.5,0,90,0V271z"/>
	<path class="st0" d="M421,181H91v180h30V256c0-8.3,6.7-15,15-15c3.6,0,249.3,0,240,0c8.3,0,15,6.7,15,15v105h30V181z"/>
	<path class="st0" d="M151,271v90c10.1,0,94.5,0,90,0v-90h-30v15c0,8.3-6.7,15-15,15s-15-6.7-15-15v-15H151z"/>
	<path class="st0" d="M416.6,4.4C413.8,1.6,410,0,406,0H106c-4,0-7.8,1.6-10.6,4.4l-91,91C1.6,98.2,0,102,0,106v391
		c0,8.3,7.7,15,16,15h45V166c0-8.3,6.7-15,15-15h360c8.3,0,15,6.7,15,15v346h46c8.3,0,15-6.7,15-15V106c0-4-1.6-7.8-4.4-10.6
		L416.6,4.4z M166,121h-60c-8.3,0-15-6.7-15-15s6.7-15,15-15h60c8.3,0,15,6.7,15,15S174.3,121,166,121z M286,121h-60
		c-8.3,0-15-6.7-15-15s6.7-15,15-15h60c8.3,0,15,6.7,15,15S294.3,121,286,121z M406,121h-60c-8.3,0-15-6.7-15-15s6.7-15,15-15h60
		c8.3,0,15,6.7,15,15S414.3,121,406,121z"/>
	<path class="st0" d="M91,512h90V391h-30v15c0,8.3-6.7,15-15,15s-15-6.7-15-15v-15H91V512z"/>
</g>
</svg>
