<?xml version="1.0" encoding="utf-8"?>
<!-- Generator: Adobe Illustrator 24.0.0, SVG Export Plug-In . SVG Version: 6.00 Build 0)  -->
<svg version="1.1" id="Layer_1" xmlns="http://www.w3.org/2000/svg" xmlns:xlink="http://www.w3.org/1999/xlink" x="0px" y="0px"
	 viewBox="0 0 205.3 118.9" style="enable-background:new 0 0 205.3 118.9;" xml:space="preserve">
<path d="M15.9,93.6c1.6-34.6,17.1-60,47.5-77.3c2.2,12.3,4.2,23.9,6.3,35.4c0.3,1.6,0.6,3.3,0.9,4.9c0.8,4,3.3,6.2,7.4,5.9
	c3.8-0.3,6.3-3.5,5.7-7.9c-1.6-10.7-3.6-21.3-5.5-31.9c-0.4-2.5-0.9-4.9-1.4-7.3C75.3,6.5,79.1,1,88.3,0.4c9.6-0.6,19.3-0.3,28.9,0
	c2.6,0.1,5.4,1.7,7.7,3.1c3.3,2,4.9,4.6,4,9.1c-2.7,12.8-4.7,25.8-7,38.7c-0.2,1.3-0.4,2.6-0.5,4c-0.2,3.9,1.7,6.5,5.5,7.1
	c4.1,0.7,6.8-1.5,7.6-5.5c2.1-11.3,4-22.6,6.1-33.8c0.3-2,0.8-3.9,1.3-6.6c30.4,17.1,45.9,42.7,47.4,77c1.7,0.1,3,0.2,4.3,0.4
	c6.6,0.6,11.4,5.7,11.7,12.1c0.2,6.2-4.6,11.9-11,12.9c-1.1,0.2-2.3,0.1-3.5,0.1c-58.9,0-117.8,0-176.6,0c-5.4,0-9.8-1.7-12.5-6.6
	c-2.4-4.3-2.2-8.6,0.3-12.8C5,94.5,9.9,93.4,15.9,93.6z"/>
</svg>
