<?xml version="1.0" encoding="utf-8"?>
<!-- Generator: Adobe Illustrator 24.0.0, SVG Export Plug-In . SVG Version: 6.00 Build 0)  -->
<svg version="1.1" id="Layer_1" xmlns="http://www.w3.org/2000/svg" xmlns:xlink="http://www.w3.org/1999/xlink" x="0px" y="0px"
	 viewBox="0 0 512 512" style="enable-background:new 0 0 512 512;" xml:space="preserve">
<style type="text/css">
	.st0{fill:#4C82D2;}
</style>
<path class="st0" d="M226,90V8.8L144.8,90H226z"/>
<path class="st0" d="M256,120H136v61.5c50.8,7.4,90,50.7,90,103.5c0,36.9-19.2,69.3-48.1,88c32.5,15.2,57.7,42.9,69.8,77H496V0H256
	V120z M436,390H256v-30h180V390z M436,330H256v-30h180V330z M361,180c-24.8,0-45-20.2-45-45c0-19.5,12.6-36,30-42.2V60h30v32.8
	c17.4,6.2,30,22.7,30,42.2h-30c0-8.3-6.7-15-15-15s-15,6.7-15,15s6.7,15,15,15c24.8,0,45,20.2,45,45c0,19.5-12.6,36-30,42.2V270h-30
	v-32.8c-17.4-6.2-30-22.7-30-42.2h30c0,8.3,6.7,15,15,15s15-6.7,15-15S369.3,180,361,180z"/>
<path class="st0" d="M196,285c0,41.4-33.6,75-75,75s-75-33.6-75-75s33.6-75,75-75S196,243.6,196,285z"/>
<path class="st0" d="M121,390c-58,0-105,48-105,106v16h210v-16C226,438,179,390,121,390z"/>
</svg>
