<?xml version="1.0" encoding="utf-8"?>
<!-- Generator: Adobe Illustrator 24.0.0, SVG Export Plug-In . SVG Version: 6.00 Build 0)  -->
<svg version="1.1" id="Layer_1" xmlns="http://www.w3.org/2000/svg" xmlns:xlink="http://www.w3.org/1999/xlink" x="0px" y="0px"
	 viewBox="0 0 300 300" style="enable-background:new 0 0 300 300;" xml:space="preserve">
<style type="text/css">
	.st0{fill:#538DE4;}
</style>
<g>
	<path class="st0" d="M63.9,118.6c5.7,0,11.4-0.9,16.8-2.6l32.2,32.2l35.3-35.3L116,80.7c6.2-19.4,1.1-40.9-13.4-55.3
		c-10.3-10.3-24-16-38.6-16c-8.1,0-16.3,1.8-23.6,5.3c-1.1,0.5-1.9,1.6-2.1,2.8c-0.2,1.2,0.2,2.4,1,3.3l33.9,33.9
		c2.5,2.5,3.9,5.8,3.9,9.3c0,3.5-1.4,6.8-3.9,9.3c-5,5-13.7,5-18.7,0L20.8,39.5c-0.9-0.9-2.1-1.2-3.3-1c-1.2,0.2-2.2,1-2.8,2.1
		C4.8,61.4,9,86.3,25.4,102.7C35.7,113,49.4,118.6,63.9,118.6z"/>
	<path class="st0" d="M236.1,181.3c-5.7,0-11.4,0.9-16.8,2.6l-35.6-35.6l-35.3,35.3l35.6,35.6c-6.2,19.4-1.1,40.9,13.4,55.3
		c10.3,10.3,24,16,38.6,16c8.1,0,16.3-1.8,23.6-5.3c1.1-0.5,1.9-1.6,2.1-2.8s-0.2-2.4-1-3.3l-33.9-33.9c-2.5-2.5-3.9-5.8-3.9-9.3
		c0-3.5,1.4-6.8,3.9-9.3c5-5,13.7-5,18.7,0l33.9,33.9c0.9,0.9,2.1,1.2,3.3,1c1.2-0.2,2.2-1,2.8-2.1c10-20.9,5.7-45.9-10.6-62.2
		C264.3,187,250.6,181.3,236.1,181.3z"/>
	<path class="st0" d="M221.6,101c0,0,5.9,5.2,10.8,2.8c5.5-2.8,21,12.5,25.9,16.1c0,0,0,0,0.1,0l-2.7,2.7c-3.6,3.5-3.6,9.3,0,12.8
		c3.6,3.5,9.3,3.5,12.8,0l21.4-21.3c3.5-3.6,3.5-9.3,0-12.8c-3.5-3.5-9.3-3.5-12.8,0l-3.6,3.6c-3-4.1-7.9-11-7.2-13.3
		c2.6-10-17.9-33.8-17.9-33.8C197.5,6.8,163.5,8,147.3,13.5c-6.5,2.2-5.3,3.6,1.5,4.8c49,8.6,55.1,37.5,46.8,48.6
		c-3.2,4.3,1.5,9.5,1.5,9.5l1.8,1.7L116,161c1.1,0.7,2.2,1.4,3.2,2.4l13.9,13.9c0.9,0.9,1.7,2,2.4,3.2l82.8-82.8L221.6,101z"/>
	<path class="st0" d="M113.6,169c-3.1-3.1-8.3-3.3-11.5-0.4l-92,82.5c-3.3,2.8-3.5,7.7-0.4,10.7l25.1,25c3.1,3.1,7.9,2.9,10.7-0.4
		l82.5-92c2.8-3.3,2.6-8.4-0.4-11.5L113.6,169z"/>
</g>
</svg>
