<?xml version="1.0" encoding="utf-8"?>
<!-- Generator: Adobe Illustrator 24.0.0, SVG Export Plug-In . SVG Version: 6.00 Build 0)  -->
<svg version="1.1" id="Layer_1" xmlns="http://www.w3.org/2000/svg" xmlns:xlink="http://www.w3.org/1999/xlink" x="0px" y="0px"
	 viewBox="0 0 378.6 337.5" style="enable-background:new 0 0 378.6 337.5;" xml:space="preserve">
<style type="text/css">
	.st0{fill:#538DE4;}
</style>
<g>
	<g>
		<path class="st0" d="M189.3,337.5c-51.2,0-102.5,0-153.7,0C13.7,337.5,0,323.9,0,302.1c0-62.9,0-125.8,0-188.7
			c0-21.9,13.7-35.5,35.5-35.5c102.6,0,205.3,0,307.9,0c21.2,0,35,13.7,35.1,34.9c0.1,63.2,0.1,126.5,0,189.7
			c0,21.3-13.9,34.9-35,34.9C292.1,337.5,240.7,337.5,189.3,337.5z M189.4,302c52.1-0.1,94.2-42.4,94.2-94.3
			c0-53.6-44.2-94.2-94.5-94.3c-49,0-94.5,41.1-94,94.5C95.5,259.9,137.4,302.1,189.4,302z"/>
		<path class="st0" d="M128.6,64.6c-11.3,0-21.9,0-32.4,0C90.2,32.5,110.7,6.1,138.5,1c3.9-0.7,7.9-0.9,11.9-0.9
			C176.5,0,202.6,0,228.7,0c31.8,0,54.6,22.8,54.6,54.7c0,3.1,0,6.3,0,9.7c-11.2,0-21.9,0-33.3,0c0-3.7,0.1-7.3,0-10.8
			c-0.2-11.6-8.2-19.8-19.8-19.9c-27.3-0.1-54.5-0.1-81.8,0c-11.6,0.1-19.6,8.3-19.8,19.9C128.5,57.1,128.6,60.6,128.6,64.6z"/>
		<path class="st0" d="M214.4,183.6c6.6,0,12.4,0,18.2,0c6.6,0,13.3-0.2,19.9,0.2c3.7,0.2,6.6,2.6,6.6,6.7c0.1,12.1,0.2,24.3,0,36.4
			c-0.1,4.5-3.1,6.8-8.1,6.8c-10.1,0.1-20.3,0-30.4,0c-1.8,0-3.6,0-5.9,0c-0.1,2.2-0.3,3.9-0.3,5.7c0,10.1,0,20.3,0,30.4
			c0,6.1-2.5,8.6-8.3,8.7c-11.3,0.1-22.6,0.1-33.9,0c-5.3,0-7.9-2.7-8-8c-0.1-12,0-23.9,0-36.5c-2.1-0.1-3.8-0.3-5.6-0.3
			c-10.3,0-20.6,0-30.9,0c-5.6,0-8.2-2.6-8.3-8.2c-0.1-11.1-0.1-22.3,0-33.4c0-5.7,2.9-8.5,8.6-8.6c11.9-0.1,23.8,0,36.3,0
			c0.1-1.9,0.4-3.7,0.3-5.4c-0.1-10.3-0.4-20.6-0.4-30.9c0-5.9,2.6-8.4,8.5-8.5c11.1-0.1,22.3-0.1,33.4,0c5.6,0,8.2,2.6,8.2,8.2
			c0.1,10.1,0,20.3,0,30.4C214.4,179.3,214.4,181.1,214.4,183.6z"/>
	</g>
</g>
</svg>
