<?xml version="1.0" encoding="utf-8"?>
<!-- Generator: Adobe Illustrator 24.0.0, SVG Export Plug-In . SVG Version: 6.00 Build 0)  -->
<svg version="1.1" id="Capa_1" xmlns="http://www.w3.org/2000/svg" xmlns:xlink="http://www.w3.org/1999/xlink" x="0px" y="0px"
	 viewBox="0 0 512 512" style="enable-background:new 0 0 512 512;" xml:space="preserve">
<style type="text/css">
	.st0{fill:#538DE4;}
</style>
<g>
	<path class="st0" d="M392,45c0-8.3-6.7-15-15-15H15C6.7,30,0,36.7,0,45v95.7h392V45z M76,100.3c-8.3,0-15-6.7-15-15s6.7-15,15-15
		s15,6.7,15,15S84.3,100.3,76,100.3z M136,100.3c-8.3,0-15-6.7-15-15s6.7-15,15-15s15,6.7,15,15S144.3,100.3,136,100.3z M316,100.3
		H196c-8.3,0-15-6.7-15-15s6.7-15,15-15h120c8.3,0,15,6.7,15,15S324.3,100.3,316,100.3z"/>
	<path class="st0" d="M457,317h-54.2c27.7-5.1,48.7-29.4,48.7-58.5c0-32.8-26.7-59.5-59.5-59.5s-59.5,26.7-59.5,59.5
		c0,29.1,21,53.4,48.7,58.5H327c-30.3,0-55,24.7-55,55v95c0,8.3,6.7,15,15,15h210c8.3,0,15-6.7,15-15v-95
		C512,341.7,487.3,317,457,317z"/>
	<path class="st0" d="M304,241H196c-8.3,0-15-6.7-15-15s6.7-15,15-15h119.6c12.1-19.8,31.6-34.6,54.7-40.3H0v110.7h305.7
		C302.2,268.6,301.5,254.8,304,241L304,241z M76,241c-8.3,0-15-6.7-15-15s6.7-15,15-15s15,6.7,15,15S84.3,241,76,241z M136,241
		c-8.3,0-15-6.7-15-15s6.7-15,15-15s15,6.7,15,15S144.3,241,136,241z"/>
	<path class="st0" d="M0,407c0,8.3,6.7,15,15,15h227v-40.3h-46c-8.3,0-15-6.7-15-15s6.7-15,15-15h48.5c3.8-15.6,12-29.5,23.1-40.3H0
		V407z M136,351.7c8.3,0,15,6.7,15,15s-6.7,15-15,15s-15-6.7-15-15S127.7,351.7,136,351.7z M76,351.7c8.3,0,15,6.7,15,15
		s-6.7,15-15,15s-15-6.7-15-15S67.7,351.7,76,351.7z"/>
</g>
</svg>
