<?xml version="1.0" encoding="utf-8"?>
<!-- Generator: Adobe Illustrator 24.0.0, SVG Export Plug-In . SVG Version: 6.00 Build 0)  -->
<svg version="1.1" id="Layer_1" xmlns="http://www.w3.org/2000/svg" xmlns:xlink="http://www.w3.org/1999/xlink" x="0px" y="0px"
	 viewBox="0 0 272 472.8" style="enable-background:new 0 0 272 472.8;" xml:space="preserve">
<style type="text/css">
	.st0{fill:#4C82D2;}
</style>
<g>
	<circle class="st0" cx="171.2" cy="28.7" r="2.5"/>
	<path class="st0" d="M172.1,93.7L205,0h-49.8L141,42.9l18.6,50.8H172.1z M171.2,16.2c6.9,0,12.5,5.6,12.5,12.5s-5.6,12.5-12.5,12.5
		c-6.9,0-12.5-5.6-12.5-12.5C158.7,21.8,164.3,16.2,171.2,16.2z"/>
	<path class="st0" d="M168.5,132.3c-0.6,0.2-1.1,0.3-1.7,0.3h-60.4c-2.1,0-4-1.3-4.7-3.3l-2.8-8.1c-5.2,0.4-9,4.9-8.7,10.1
		c0.4,4.9,4.4,8.7,9.4,8.7h73c5.2-0.1,9.3-4.3,9.3-9.5c-0.1-5.1-4.2-9.2-9.3-9.3h-2.8l1.8,4.8C172.4,128.4,171.1,131.3,168.5,132.3z
		"/>
	<path class="st0" d="M159.6,122.6L114.6,0H67l42.9,122.6H159.6z M100.8,41.2L100.8,41.2c-6.9,0-12.5-5.6-12.5-12.5
		s5.6-12.5,12.5-12.5s12.5,5.6,12.5,12.5C113.3,35.6,107.7,41.2,100.8,41.2z"/>
	<circle class="st0" cx="100.8" cy="28.7" r="2.5"/>
	<path class="st0" d="M257,103.7h-93.6l2.7,7.4h6.5c10.7,0.1,19.3,8.8,19.3,19.5c-0.1,10.6-8.7,19.2-19.3,19.3h-73
		c-10.7,0-19.4-8.7-19.4-19.4c0-9.1,6.4-17,15.3-19l-2.7-7.8H15c-8.3,0-15,6.7-15,15v339.1c0,8.3,6.7,15,15,15h242
		c8.3,0,15-6.7,15-15V118.7C271.9,110.4,265.2,103.7,257,103.7z M62.6,340.1c0-38.1,29.2-69.5,66.4-73c-16.9-3.2-29.7-18.1-29.7-36
		c0-20.3,16.4-36.7,36.7-36.7s36.7,16.4,36.7,36.7c0,17.9-12.8,32.8-29.7,36c37.2,3.5,66.4,34.9,66.4,73v25.3H62.6V340.1z
		 M168.7,405.4v0.2l-0.2-0.2H168.7z M154.9,419c0,2.8-2.2,5-5,5H116c-2.8,0-5-2.2-5-5s2.2-5,5-5h33.9
		C152.7,414,154.9,416.2,154.9,419z M42.1,414L42.1,414h54.9c2.8,0,5,2.2,5,5s-2.2,5-5,5H42.1c-2.8,0-5-2.2-5-5S39.3,414,42.1,414z
		 M229.9,452H42.1c-2.8,0-5-2.2-5-5s2.2-5,5-5h187.9c2.8,0,5,2.2,5,5S232.7,452,229.9,452z"/>
</g>
</svg>
