<?xml version="1.0" encoding="utf-8"?>
<!-- Generator: Adobe Illustrator 24.0.0, SVG Export Plug-In . SVG Version: 6.00 Build 0)  -->
<svg version="1.1" id="Layer_1" xmlns="http://www.w3.org/2000/svg" xmlns:xlink="http://www.w3.org/1999/xlink" x="0px" y="0px"
	 viewBox="0 0 512 512" style="enable-background:new 0 0 512 512;" xml:space="preserve">
<path d="M512,38H0v372.2h309.8v-37.6c-17.3-16.3-28.2-39.4-28.2-65.1c0-49.3,40.1-89.3,89.3-89.3s89.3,40.1,89.3,89.3
	c0,25.6-10.8,48.8-28.2,65.1v37.6H512V38z M406.9,98v30H105.1V98H406.9z M60,290.1v-30H206v30H60z M206,320.1v30H60v-30H206z
	 M452,188.1H60v-30H452V188.1z"/>
<path d="M402.1,474.2v-83c-9.7,3.6-20.2,5.6-31.2,5.6c-11,0-21.4-2-31.2-5.6v83L371,459L402.1,474.2z"/>
<path d="M311.6,307.5c0,32.7,26.6,59.3,59.3,59.3s59.3-26.6,59.3-59.3s-26.6-59.3-59.3-59.3S311.6,274.8,311.6,307.5z"/>
</svg>
