<?xml version="1.0" encoding="utf-8"?>
<!-- Generator: Adobe Illustrator 24.0.0, SVG Export Plug-In . SVG Version: 6.00 Build 0)  -->
<svg version="1.1" id="Capa_1" xmlns="http://www.w3.org/2000/svg" xmlns:xlink="http://www.w3.org/1999/xlink" x="0px" y="0px"
	 viewBox="0 0 384.2 397.4" style="enable-background:new 0 0 384.2 397.4;" xml:space="preserve">
<style type="text/css">
	.st0{fill:#4C82D2;}
</style>
<g>
	<path class="st0" d="M237.5,156.6c-7-22.4-27.9-38.6-52.5-38.6h-54.2c27.7-5.1,48.7-29.4,48.7-58.5C179.5,26.7,152.8,0,120,0
		C87.2,0,60.5,26.7,60.5,59.5c0,29.1,21,53.4,48.7,58.5H55c-30.3,0-55,24.7-55,55v95c0,8.3,6.7,15,15,15h134
		c-1.6-7.2-2.4-14.6-2.5-22.1C145.8,207.5,185.8,163.6,237.5,156.6z"/>
</g>
<g>
	<g>
		<path class="st0" d="M375.5,275.6c-0.1,58.1-47.2,105.7-106,105.2c-61.4-0.5-104.1-48.9-104.9-105.3
			C163.8,217,211.8,170,270.6,170.2C328.7,170.4,375.6,217.5,375.5,275.6z M270.1,353.5c43.3,0.2,78.3-35.4,78.1-78.3
			c-0.3-42.9-35.2-77.7-78.1-77.7c-43.3,0-78.3,34.9-78.3,77.9C191.8,318.3,226.3,353.6,270.1,353.5z"/>
		<path class="st0" d="M255.7,322.1c-15.3-15.2-30.5-30.5-45.6-45.5c5.4-5.4,11-11,16.8-16.7c9,9.1,18.5,18.6,28.1,28.3
			c18.3-18.4,36-36.1,53.6-53.7c6.2,6.1,11.9,11.8,17.5,17.4C302.8,275.2,279.2,298.7,255.7,322.1z"/>
	</g>
</g>
</svg>
