<?xml version="1.0" encoding="utf-8"?>
<!-- Generator: Adobe Illustrator 24.0.0, SVG Export Plug-In . SVG Version: 6.00 Build 0)  -->
<svg version="1.1" id="Layer_1" xmlns="http://www.w3.org/2000/svg" xmlns:xlink="http://www.w3.org/1999/xlink" x="0px" y="0px"
	 viewBox="0 0 233.1 233.1" style="enable-background:new 0 0 233.1 233.1;" xml:space="preserve">
<style type="text/css">
	.st0{fill:#FFFFFF;}
</style>
<path class="st0" d="M116.5,0C52.2,0,0,52.2,0,116.5c0,64.4,52.2,116.5,116.5,116.5c64.4,0,116.5-52.2,116.5-116.5
	C233.1,52.2,180.9,0,116.5,0z M76.5,58.3c6,0,10.9,4.9,10.9,10.9c0,6-4.9,10.9-10.9,10.9c-6,0-10.9-4.9-10.9-10.9
	C65.5,63.2,70.4,58.3,76.5,58.3z M87.5,160.1H65.7V87.4h21.8V160.1z M174.8,160.1H153v-39.7c0-8.1-2.4-16.3-11.9-16.3
	c-9.6,0-17.2,8.1-17.2,16.5v39.5H102v-73h21.9v10.1c6.7-8.5,16.2-12.4,26.8-12.4c10.6,0,24.2,5.3,24.2,34V160.1z"/>
</svg>
