<?xml version="1.0" encoding="utf-8"?>
<!-- Generator: Adobe Illustrator 24.0.0, SVG Export Plug-In . SVG Version: 6.00 Build 0)  -->
<svg version="1.1" id="Layer_1" xmlns="http://www.w3.org/2000/svg" xmlns:xlink="http://www.w3.org/1999/xlink" x="0px" y="0px"
	 viewBox="0 0 145.4 29.1" style="enable-background:new 0 0 145.4 29.1;" xml:space="preserve">
<style type="text/css">
	.st0{fill:#15133E;}
	.st1{fill:#FFFFFF;}
	.st2{fill:url(#SVGID_1_);}
</style>
<g>
	<g>
		<g>
			<path class="st0" d="M0,27.6V4h13.4c2.1,0,3.6,0.2,4.6,0.7c1.1,0.5,1.9,1.5,2.5,2.7c0.4,0.9,0.6,1.8,0.6,2.7
				c0,1.2-0.3,2.3-0.9,3.3c-0.6,1.1-1.5,1.9-2.5,2.3c2.3,1,3.4,2.9,3.4,5.6c0,1.3-0.3,2.5-0.8,3.5c-0.6,1.1-1.5,1.9-2.7,2.2
				c-1,0.3-2.5,0.5-4.4,0.5H0z M5,13.7h6.9c1.2,0,2-0.2,2.5-0.6c0.7-0.6,1.1-1.3,1.1-2.3c0-1.7-1.2-2.6-3.5-2.6H5V13.7z M5,23.4h6.9
				c1.2,0,2-0.2,2.5-0.6c0.7-0.6,1.1-1.4,1.1-2.3c0-1.7-1.2-2.6-3.5-2.6H5V23.4z"/>
			<path class="st0" d="M42.5,4v4.2h-6.6c-1.5,0-2.5,0.1-3.1,0.2c-1.1,0.2-2,0.8-2.6,1.5c-0.5,0.7-0.9,2-1,3.8h13.3v4.2H29.2
				c0.2,2.1,0.9,3.6,2,4.4c1,0.7,2.6,1,4.9,1h6.3v4.2h-6.6c-1.8,0-3.3-0.1-4.7-0.3c-2.1-0.3-3.8-1.3-5.1-2.8
				c-1.8-2.2-2.7-5.1-2.7-8.8c0-4.1,1.3-7.3,3.8-9.6C28.8,4.7,31.1,4,34,4H42.5z"/>
			<path class="st0" d="M52.8,17.2L44.1,4H50l5.4,9.2L61.1,4h6l-9.2,13.5v10.2h-5V17.2z"/>
			<path class="st0" d="M102.9,10.3v17.3h-4.8V4h6.4l9.4,17.6V4h4.8v23.6h-6.2L102.9,10.3z"/>
			<path class="st0" d="M123.6,4h10c2.5,0,4.4,0.2,5.8,0.7c2.5,0.9,4.2,2.6,5,5c0.6,1.9,1,3.9,1,6.1c0,5.2-1.3,8.6-4,10.3
				c-1,0.7-2.3,1.1-3.8,1.3c-0.9,0.1-2.2,0.2-4,0.2h-10V4z M128.6,8.2v15.2h5c2.2,0,3.7-0.5,4.6-1.5c0.5-0.6,0.9-1.4,1.3-2.6
				c0.3-1.1,0.5-2.3,0.5-3.5c0-3.1-0.7-5.2-2.1-6.4c-0.9-0.8-2.3-1.2-4.2-1.2H128.6z"/>
		</g>
	</g>
	<g>
		
			<ellipse transform="matrix(0.9736 -0.2284 0.2284 0.9736 -1.0676 18.8825)" class="st0" cx="81.1" cy="14.1" rx="14.1" ry="14.1"/>
		<g>
			<path class="st1" d="M82.1,26.8c-0.3,0-0.4,0.1-0.4,0c-0.1,0-0.2-0.1-0.2,0c0,0.1,0,0.1,0,0.1c-0.1,0-0.1,0,0,0.1
				c0.1,0.1,0.2,0,0.2,0c0.1,0,0.2-0.2,0.1-0.1c-0.1,0.1-0.2,0.2,0,0.1c0.2-0.1,0.1-0.1,0.3-0.1c0.2,0,0.2,0,0.2,0
				C82.3,26.9,82.2,26.8,82.1,26.8C82.2,26.7,82.4,26.8,82.1,26.8z"/>
			<path class="st1" d="M77.3,9.7c0.1,0,0.2,0,0.7,0c0.5,0,0.3,0,0.2-0.1c-0.1-0.1-0.2-0.1-0.3-0.1c-0.1-0.1,0-0.1-0.1-0.1
				c-0.1,0-0.2-0.1-0.3-0.1c-0.1-0.1-0.1,0-0.2-0.1C77.2,8.9,77.3,9,77,9c-0.3,0-0.2-0.1-0.2-0.1l-0.4-0.1l-0.4,0c0,0-0.3,0-0.4,0.1
				c-0.1,0.1-0.1,0.1-0.2,0.1c-0.1,0,0,0.1,0.1,0.1c0.1,0,0.1,0,0.2-0.1C75.8,8.9,75.8,9,76,9c0.2,0,0.1-0.1,0.2-0.1S76.3,9,76.3,9
				c-0.1,0-0.1,0,0.1,0.1c0.2,0,0.1,0,0.2,0c0.1,0,0.1,0,0.2,0.1c0.1,0,0.1,0.1,0.3,0.1c0.2,0,0.1,0,0.1,0.1c0,0.1,0.1,0.1,0.3,0.2
				C77.6,9.5,77.2,9.7,77.3,9.7z"/>
			<path class="st1" d="M80.5,10.2c-0.1,0-0.1,0-0.2,0c-0.2,0-0.1,0.2,0,0.2c0.1,0,0.1,0,0.2,0.1c0.1,0.1,0.1,0,0.1,0
				c0.1,0,0.2-0.1,0.2-0.1c0,0-0.1,0-0.2-0.1C80.6,10.2,80.6,10.2,80.5,10.2z"/>
			<path class="st1" d="M77.5,8.6c0.1,0,0.1,0,0.1-0.1c0-0.1-0.1-0.3-0.2-0.3c-0.2,0-0.3-0.1-0.1,0.2C77.5,8.6,77.4,8.6,77.5,8.6z"
				/>
			<path class="st1" d="M78.9,1.1C78.9,1,78.8,1.1,78.9,1.1l-0.1,0C78.8,1.1,78.9,1.1,78.9,1.1z"/>
			<path class="st1" d="M78.6,1c-0.1,0-0.1,0.1-0.2,0.1h0.1l0.2,0C78.7,1,78.7,1,78.6,1z"/>
			<path class="st1" d="M78.2,1.1C78.2,1.1,78.1,1.1,78.2,1.1c0,0.1,0,0.1,0.1,0c0,0,0,0,0.1,0h0C78.2,1.1,78.2,1.1,78.2,1.1z"/>
			<path class="st1" d="M78.6,1.1c0,0-0.1,0.1-0.2,0.1c0,0,0,0.1,0,0.1c0,0,0.2,0,0.2,0S78.6,1.2,78.6,1.1
				C78.6,1.1,78.6,1.1,78.6,1.1z"/>
			<path class="st1" d="M78.9,1.3c0,0,0-0.1,0-0.1C78.8,1.2,78.8,1.2,78.9,1.3h-0.1C78.8,1.3,78.9,1.3,78.9,1.3z"/>
			<path class="st1" d="M82.7,3.5c0.1,0.1,0.1,0.1,0.1,0c0,0,0.1-0.1,0.1-0.1c0,0,0.1,0,0.1,0c0,0,0,0,0-0.1c0.1,0,0.1,0,0.1-0.1
				c0,0,0.1,0,0-0.1c-0.1-0.1-0.2,0-0.1-0.1c0.1-0.1,0.3,0,0.1-0.1c-0.2-0.1-0.2-0.1-0.3-0.1c-0.1,0,0,0.1-0.2,0s-0.2-0.1-0.2-0.1
				c0.1-0.1,0.2-0.2,0.2-0.2c0,0,0-0.1-0.1,0c-0.1,0-0.2,0.1-0.2,0.1c0,0.1-0.1,0.2-0.1,0.2L82.2,3l-0.1,0.1c0,0,0,0,0,0
				c-0.1,0-0.2,0-0.1,0c0.1,0,0.2,0,0.1,0.1C82,3.3,81.9,3.3,82,3.3c0.1,0,0.5,0,0.5,0l0.1,0l0.1,0.1c0,0,0.1,0,0.2,0c0,0,0,0,0,0
				c0,0,0,0,0,0.1C82.8,3.5,82.6,3.4,82.7,3.5z"/>
			<path class="st1" d="M81.8,3.7C81.8,3.7,81.8,3.7,81.8,3.7c0.1,0.1,0.1,0.1,0.1,0.1s0.1,0,0.1-0.1c0,0-0.1,0-0.1,0c0,0,0,0,0-0.2
				s0,0,0,0l-0.1,0.1c0,0,0,0,0,0.1C81.6,3.7,81.7,3.7,81.8,3.7C81.8,3.7,81.8,3.7,81.8,3.7C81.8,3.7,81.8,3.7,81.8,3.7z"/>
			<path class="st1" d="M83.1,3.5C83.1,3.5,83.2,3.4,83.1,3.5c0.1,0.1,0.1,0.1,0.1,0.1l0.1,0l0.1-0.1l0-0.1c0,0,0-0.1-0.1-0.1
				c-0.1,0,0,0-0.1,0.1c0,0,0,0.1,0,0c0,0,0-0.1,0-0.1c-0.1,0-0.1,0.1-0.1,0.1S83.1,3.3,83.1,3.5C83.1,3.5,83.1,3.5,83.1,3.5z"/>
			<path class="st1" d="M81.1,0.2c0.4,0,0.5,0,0.5,0s0,0,0.3,0.1c0.3,0.1,0.1,0,0.2,0.1c0.1,0,0.1,0,0.2,0c0.1,0,0.1,0,0,0
				s-0.1,0-0.2,0c-0.1,0,0,0,0.1,0.1c0.1,0,0.2,0,0.2,0s0,0,0,0.1c0,0,0,0-0.1,0.1s0,0,0.1,0.1c0.1,0.1,0.2,0.1,0.3,0.2
				c0.1,0.1,0.5,0.3,0.5,0.3l0.3,0c0,0,0.2,0,0.3,0.1c0.1,0.1,0.1,0.1,0.1,0.1c0,0,0.3,0,0.3,0c0,0-0.1-0.2-0.1-0.2
				c0-0.1,0-0.1,0-0.1l0-0.1c0,0-0.1-0.1,0-0.2c0.1,0,0.1,0,0.3,0c0.2,0,0.1,0,0-0.1c-0.1-0.1,0-0.1,0-0.1c0,0,0.1,0,0.1,0
				c0,0,0.1,0,0.2,0c0.1,0,0.2,0,0.1-0.1c-0.1-0.1-0.4-0.1-1.5-0.3c-1.1-0.2-1.7-0.2-1.7-0.2c-0.1,0-0.3,0-0.4,0c-0.1,0-0.2,0-0.4,0
				c-0.2,0-0.2,0-0.3,0c-0.1,0-0.1,0-0.2,0c0,0-0.1,0-0.1,0c0.1,0,0.2,0,0.3,0C81,0.3,80.7,0.2,81.1,0.2z"/>
			<path class="st1" d="M86,1.2c0.2,0,0.2,0.1,0.3,0.1c0,0-0.4-0.2-0.5-0.3c-0.1,0-0.3,0-0.3,0l0.1,0.2C85.6,1.1,85.8,1.1,86,1.2z"
				/>
			<path class="st1" d="M89,3.1c0,0,0.2,0,0.2,0c0,0,0.1-0.1,0-0.2c-0.1-0.1-0.6-0.4-0.6-0.4c-0.1,0-0.1,0.1-0.1,0.1l0.1,0.3L89,3.1
				z"/>
			<path class="st1" d="M90.9,5c0,0.2,0.1,0.4,0.1,0.4s0.1,0.1,0.1,0.2c0.1,0.1,0.4,0.4,0.5,0.4c0.1,0,0.1,0.2,0.2,0
				c0-0.2,0.1-0.1,0-0.3c-0.1-0.1-0.1-0.2-0.2-0.3c-0.1-0.1-0.2-0.1-0.2-0.3c0-0.2,0-0.2,0-0.3c0-0.1-1.3-1.3-1.3-1.3
				c-0.2,0-0.5-0.2-0.2,0c0.2,0.2,0.3,0.3,0.3,0.3l0.2,0.2c0,0,0.4,0.3,0.4,0.4c0,0.1-0.5-0.1-0.4,0C90.5,4.6,90.9,4.8,90.9,5z"/>
			<path class="st1" d="M90.8,10.4C90.7,10.4,90.7,10.4,90.8,10.4C90.7,10.5,90.7,10.5,90.8,10.4C90.8,10.5,90.8,10.5,90.8,10.4
				C90.8,10.5,90.8,10.5,90.8,10.4z"/>
			<path class="st1" d="M90.9,10.5C90.8,10.6,90.8,10.6,90.9,10.5c0,0.1,0,0.1,0,0.1L90.9,10.5L90.9,10.5z"/>
			<path class="st1" d="M91,10.5L91,10.5l0.1,0L91,10.5C91,10.4,91,10.5,91,10.5z"/>
			<path class="st1" d="M91.1,10.6L91.1,10.6l0.1,0L91.1,10.6C91.1,10.6,91.1,10.6,91.1,10.6z"/>
			<path class="st1" d="M91.1,10.8C91.1,10.9,91.1,10.9,91.1,10.8c0.1,0,0.1,0,0.1,0L91.1,10.8C91.1,10.8,91.1,10.8,91.1,10.8z"/>
			<path class="st1" d="M91,10.9C91,10.9,91,10.9,91,10.9c0.1,0.1,0.1,0.1,0.1,0.1S91,10.9,91,10.9C91,10.8,91,10.9,91,10.9z"/>
			<polygon class="st1" points="90.8,10.9 90.8,10.9 90.9,10.9 90.8,10.8 			"/>
			<path class="st1" d="M85.5,27c-0.1,0-0.2,0-0.2,0c-0.1,0,0,0.1,0,0.1l0.1,0.1c0,0,0.2,0.1,0.2,0.1c0.1,0,0.2,0,0.1-0.1
				C85.5,27,85.6,27,85.5,27z"/>
			<path class="st1" d="M78.8,26.7C78.8,26.7,78.8,26.7,78.8,26.7C78.8,26.7,78.7,26.7,78.8,26.7C78.8,26.7,78.8,26.7,78.8,26.7
				C78.8,26.7,78.8,26.7,78.8,26.7z"/>
			<polygon class="st1" points="78.8,26.8 78.8,26.8 78.8,26.8 			"/>
			<path class="st1" d="M78.8,26.7c0,0-0.1,0-0.1,0c0,0-0.1,0-0.1,0v0l0.1,0l0.1,0C78.8,26.8,78.8,26.8,78.8,26.7L78.8,26.7
				C78.8,26.8,78.8,26.7,78.8,26.7z"/>
			<path class="st1" d="M79,10.4c0.1,0,0.1-0.1,0.2-0.2c0.1-0.1,0.1,0.1,0.2,0c0.2-0.1,0-0.1,0.2,0c0.2,0.1,0.2,0.1,0.2-0.1
				c0.1-0.1-0.2-0.2-0.4-0.3c-0.2-0.1-0.1-0.1-0.4-0.2c-0.3,0-0.1,0.1-0.3,0c-0.1-0.1-0.2-0.1-0.3,0c-0.1,0,0,0.1,0.1,0.1
				c0.1,0,0.1,0,0.1,0.1c0,0.1-0.1,0.1-0.1,0.1c-0.1,0-0.2,0.1-0.4,0.1c-0.2,0,0,0.1,0,0.1s0.1,0,0.4,0c0.2,0,0.2-0.1,0.4,0
				c0,0,0,0,0,0C79.1,10.3,79,10.4,79,10.4z"/>
			<path class="st1" d="M94.8,11.6c-0.2-1.2-0.6-2.4-1.1-3.5c-0.3-0.6-0.6-1.3-1-1.8l-0.2-0.2C92.3,6,92.2,5.9,92.2,6
				C92.1,6,92,6.1,92,6.1c0,0,0.2,0,0,0c-0.2,0-0.2,0.1-0.3,0c0-0.1-0.1-0.3-0.1-0.2s0.1,0.3,0.1,0.4c0,0.1,0,0.2,0,0.3
				c0,0.1,0.1,0.5,0.1,0.5S92,7.2,92,7.4c0,0.2,0,0.2-0.1,0.3c0,0.1-0.1,0-0.1,0.1c0.2,0,0.5,0.1,0.5,0.1s0.1,0.1,0.2,0.2
				c0,0,0,0,0,0c0,0-0.1,0.1,0,0.2c0,0.1,0,0.2-0.1,0.1c-0.1,0-0.3-0.3-0.2-0.1c0.1,0.2,0.2,0.3,0.1,0.4c-0.1,0.1-0.2-0.1-0.1,0.1
				c0.1,0.2,0.3,0.5,0.1,0.5c-0.1,0-0.3-0.1-0.5-0.1c0.1,0.2,0.1,0.2,0.1,0.3c0.1,0.1-0.1,0.1,0.1,0.3C92,10,92,10.2,92,10.3
				c0,0.1,0,0.1,0,0.2c0,0,0,0,0,0.1c0.1,0.1,0,0.2-0.1,0.3c0,0.1,0,0,0.1,0.2c0.1,0.2,0.2,0.1,0.1,0.3c-0.1,0.2,0,0.2,0.1,0.3
				c0.1,0.1,0.1,0,0.1,0.2c0,0.1,0,0.1,0.1,0.2c0,0,0.1,0.1,0.1,0.1c0,0,0.2,0.2,0.2,0.3c0,0.1,0.1,0.4,0.3,0.7c0,0,0,0,0,0
				c0.3,0.3,0.3,0.7,0.5,0.5c0.2-0.2,0.4-0.2,0.4-0.2c0,0,0-0.1,0.1-0.1s0.1,0,0.1-0.1c0-0.1,0.1-0.2,0.1-0.2c0,0,0-0.9,0-0.9
				c0-0.1,0-0.4-0.1-0.4c0,0,0,0,0,0c0,0,0,0,0,0c0.1,0.1,0.1,0.4,0.1,0.4c0,0.1,0,0.9,0,0.9c0,0,0.1-0.1,0.1,0.1
				c0,0.2,0,0.3,0.1,0.3c0.1,0,0.2-0.1,0.2,0.1c0,0.1,0.1-0.7,0.2-1.7C94.9,11.8,94.9,11.7,94.8,11.6z M92.8,10.9
				C92.8,10.9,92.8,10.9,92.8,10.9C92.8,10.9,92.8,10.9,92.8,10.9C92.8,10.9,92.8,10.9,92.8,10.9z M92.9,8.5L92.9,8.5
				C92.8,8.5,92.8,8.5,92.9,8.5C92.8,8.5,92.8,8.5,92.9,8.5z M92.8,11.6C92.9,11.6,92.9,11.6,92.8,11.6
				C92.9,11.6,92.9,11.6,92.8,11.6z M94.1,10.8c0,0.1,0,0.1,0,0.1C94.1,10.9,94.1,10.8,94.1,10.8c0-0.3-0.2-0.8-0.2-0.8
				S94.1,10.5,94.1,10.8z M93.2,12.6C93.2,12.6,93.2,12.6,93.2,12.6C93.2,12.6,93.2,12.6,93.2,12.6C93.2,12.6,93.2,12.6,93.2,12.6z
				 M93.7,12.2C93.7,12.2,93.7,12.2,93.7,12.2C93.7,12.2,93.7,12.2,93.7,12.2C93.7,12.1,93.7,12.1,93.7,12.2
				C93.7,12.1,93.7,12.1,93.7,12.2z M93.9,12.2C93.9,12.2,93.9,12.2,93.9,12.2C93.9,12.2,93.9,12.2,93.9,12.2
				C93.9,12.2,93.9,12.2,93.9,12.2z M93.8,12c0,0,0.1,0.1,0.1,0.2C93.9,12.1,93.8,12,93.8,12z M93.7,11.5c0,0.1,0,0.2,0,0.3
				C93.6,11.7,93.6,11.6,93.7,11.5c0.1-0.3,0-0.4,0.2-0.5c0.1,0,0.1,0,0.1,0c0,0,0,0.1,0,0.1c0,0-0.1-0.1-0.1,0
				C93.7,11.1,93.7,11.2,93.7,11.5z M94.2,11.6c0,0,0,0.1,0,0.1c0,0.1,0,0.1-0.1,0.2c0.1,0,0-0.1,0-0.2c0,0-0.1-0.1-0.1-0.1v0
				c0.1-0.2-0.1-0.4,0-0.6c0,0.1,0.2,0.3,0.2,0.4C94.2,11.5,94.2,11.6,94.2,11.6z"/>
			<path class="st1" d="M89.1,16.6c-0.2,0-0.2,0-0.5-0.2c-0.3-0.3-0.5-0.3-0.6-0.3c-0.1,0-0.3,0-0.3,0c0,0-0.1,0-0.1,0
				c0,0.1-0.1,0-0.3-0.1c-0.2-0.1-0.2,0-0.3,0.1c-0.1,0.1-0.2,0.2-0.2,0.2c0,0,0-0.1,0-0.1c0,0,0-0.1,0.1-0.2c0-0.1,0-0.1,0-0.2
				c0,0-0.1-0.1-0.2,0c-0.1,0,0-0.1,0-0.1c0,0-0.2-0.1-0.4-0.1c-0.2-0.1-0.2,0-0.3,0c-0.1,0.1-0.1,0.2-0.2,0.2
				c-0.1,0-0.2,0.1-0.2,0.1c0,0-0.1-0.1,0-0.1c0.1,0,0.1,0,0.2-0.1c0.1-0.1,0-0.1,0.1-0.2c0-0.1,0,0-0.1-0.1c-0.1,0-0.2-0.1-0.4-0.2
				c-0.1-0.1-0.1,0.1-0.1,0.1s-0.1,0-0.2,0.1s-0.1,0.2-0.1,0.2c0,0.1-0.1,0.1-0.1,0c0-0.1,0.1-0.1,0.2-0.3c0.1-0.2,0.1,0,0.1-0.1
				c0.1,0,0.1,0,0.1-0.1c0-0.1,0.2-0.2,0.2-0.3c0-0.1-0.1,0-0.1,0c0,0-0.1-0.1-0.2-0.3c-0.1-0.2-0.1-0.4-0.2-0.4c-0.1,0-0.2,0-0.2,0
				c0,0,0.1-0.1,0-0.1c-0.1-0.1-0.1,0-0.1-0.1c-0.1-0.1-0.1-0.1-0.2-0.1c-0.1,0-0.1,0-0.2-0.1c0,0,0,0,0,0c0,0-0.1,0-0.1-0.1
				c-0.2-0.1-0.2,0-0.2,0s-0.2,0-0.3,0c-0.1,0.1-0.1,0-0.3,0c-0.1,0-0.1,0-0.2,0c0,0,0,0,0-0.1c-0.1-0.1-0.2-0.1-0.4-0.1
				c-0.1,0,0,0,0-0.1c0-0.1,0,0-0.1-0.1c-0.1-0.1-0.1-0.1-0.2-0.1c0,0,0,0-0.1,0c-0.1-0.1-0.1,0-0.2-0.1c0,0,0-0.1-0.1-0.2
				c0,0,0,0,0,0c0-0.1-0.1-0.1-0.2-0.1c0,0-0.1,0-0.1,0c-0.1,0-0.2-0.1-0.3-0.1c0,0,0-0.1-0.1-0.2c0-0.1-0.1,0-0.3,0
				c-0.2,0-0.2,0-0.2,0.1c0,0.1,0,0.1-0.1,0.1c-0.1,0.1-0.1,0.1-0.2,0c-0.1,0-0.2-0.2-0.3-0.2c-0.1-0.1-0.1,0-0.2,0.1
				c-0.1,0.1-0.1,0.1-0.3,0s-0.1-0.1-0.1-0.2c0-0.1-0.1-0.1-0.4-0.2c-0.3,0-0.2,0.1-0.4,0.1c-0.2,0-0.1,0-0.1,0.1
				c0,0.1,0.1,0.3,0.1,0.4c0,0.1,0,0.1-0.1,0.1s-0.1,0.1-0.1,0c0-0.1,0-0.1-0.1-0.2c0-0.1,0-0.1,0-0.1c0-0.1,0,0,0.1-0.1
				c0-0.1,0-0.1,0-0.2c0-0.1,0-0.1-0.1-0.2c-0.1-0.1,0-0.1,0.1-0.1c0.1,0,0.1,0,0.1-0.1c0-0.1-0.1-0.1-0.2,0c-0.1,0-0.1,0.2-0.1,0.1
				c-0.1,0-0.1-0.1-0.1,0.1c0,0.1-0.1,0.1-0.2,0.1c0,0-0.1-0.1-0.2,0c0,0,0,0.1-0.1,0.1c-0.1,0-0.1,0-0.2,0.1
				c-0.1,0.1-0.1,0.2-0.1,0.4c0,0.2-0.1,0-0.2,0.1c-0.1,0.1-0.2,0-0.2,0.2s0,0.1-0.1,0c0,0,0,0,0-0.1c0,0,0-0.1-0.1-0.1
				c-0.1-0.1-0.1,0-0.2-0.2c-0.1-0.1-0.4,0-0.6,0c-0.2,0-0.3,0.1-0.4,0.1c-0.1,0-0.2,0-0.2-0.1c0-0.1,0,0,0,0c0,0.1,0,0-0.1,0
				c0,0,0,0,0-0.1c0-0.1,0,0-0.1-0.1c0,0,0,0,0,0c-0.1,0-0.1-0.1-0.1-0.1c0-0.1,0-0.1-0.1-0.2c0-0.1,0-0.1,0-0.1s0-0.1-0.1-0.1
				c0-0.1,0-0.1,0-0.1c0.1,0,0,0,0-0.1c0-0.1,0-0.1,0.1-0.1c0.1-0.1,0-0.1,0-0.2c0-0.1,0-0.1,0-0.1c0-0.1,0.1-0.1,0.1-0.2
				c0-0.1,0-0.1-0.1-0.1c0,0-0.1,0-0.2,0c-0.1,0,0.1,0,0.1-0.1c0,0,0.1,0,0.1-0.1c0,0,0,0,0-0.1c0,0-0.1,0-0.2-0.1
				c-0.1-0.1-0.2,0-0.2-0.1c0-0.1-0.1,0-0.2,0c-0.1,0-0.1,0-0.2,0c-0.1,0-0.2,0-0.3,0c-0.1,0-0.1,0-0.2,0c0,0,0,0-0.1,0
				c-0.1,0-0.1,0-0.1,0c0,0,0,0,0,0c0,0,0.1-0.1,0.2-0.1c0.1-0.1,0.1-0.2,0.1-0.3c0-0.1,0.1-0.1,0.1-0.1c0,0,0,0,0-0.1
				c0,0,0-0.1,0.1-0.2c0.1-0.2,0.1-0.1,0.1-0.2c0-0.1,0-0.1,0-0.2c0-0.1,0.2-0.2,0.2-0.2c0.1-0.1,0.1-0.1-0.1-0.1
				c-0.1,0-0.1,0.1-0.2,0c-0.1-0.1-0.3,0-0.4,0c-0.2,0-0.2,0.1-0.2,0.2c0,0.2-0.1,0.3-0.2,0.4c-0.1,0.1-0.1,0.1-0.3,0.1
				c-0.2,0,0,0-0.2,0.1c-0.1,0-0.1,0-0.3,0.1c-0.2,0.1-0.2,0-0.2-0.1c0-0.1-0.1,0-0.2-0.1c-0.1-0.1,0-0.2,0-0.2
				c0-0.1-0.1-0.1-0.1-0.2c0-0.2,0-0.2,0-0.4c0-0.2,0-0.1,0.1-0.4c0.1-0.2,0-0.2,0.1-0.3c0,0,0-0.1,0.1-0.1c0-0.1,0-0.1,0-0.2
				c0-0.1,0-0.1,0-0.1s0.1-0.1,0.1-0.2c0-0.1,0-0.1,0.1-0.2c0.1-0.1,0.1-0.1,0.1-0.1c0-0.1,0,0,0.1,0c0.1,0,0.1,0,0.1-0.1
				c0,0,0,0,0.1,0c0.1,0,0.1,0,0.1-0.1c0,0,0-0.1,0-0.1c0-0.1,0,0,0.2,0c0.2-0.1,0.1,0,0.2,0c0.1,0.1,0.1,0,0.2,0c0.1,0,0,0,0.1,0.1
				c0.1,0,0.1,0,0.1,0c0.1,0,0.1,0,0.1,0c0,0,0,0,0.1,0c0,0,0,0,0-0.1c-0.1-0.1,0-0.1,0-0.1c0-0.1,0,0-0.1,0s-0.1,0,0-0.1
				s0.1,0,0.3,0c0.2,0,0.1,0,0.2-0.1c0,0,0,0,0,0.1c0,0.1,0,0,0.2,0c0.1,0,0.1-0.1,0.3,0c0.2,0.1,0,0.1,0.2,0.2
				C75.9,7.2,75.9,7,76,7c0.1,0,0.1,0,0.2,0.1c0.1,0.1,0.1,0,0.2,0.2c0,0.1-0.1,0.1-0.1,0.2s0,0.2,0.1,0.2c0.1,0,0,0.1,0,0.1
				c0,0,0.1,0.3,0.2,0.3c0,0,0.1,0.1,0.2-0.1s0.1-0.3,0-0.4c-0.1-0.1,0-0.1,0-0.2c0-0.1,0-0.1-0.1-0.2c0-0.1-0.1-0.2-0.1-0.3
				c0-0.1-0.1-0.1,0-0.2c0.1-0.1,0.1-0.2,0.2-0.3C77,6.5,77,6.5,77.2,6.4c0.2-0.1,0.2-0.1,0.3-0.2c0.1-0.1,0.2-0.1,0.3-0.1
				c0-0.1,0.1,0,0.2-0.1c0.1-0.1,0.1,0,0.2-0.1c0.1-0.1,0.2-0.2,0.1-0.2c-0.1-0.1,0,0,0.2-0.1c0.2,0,0-0.1-0.1-0.1s0-0.1,0-0.2
				c0-0.1,0-0.1,0-0.2c0-0.1,0-0.1,0.1-0.2c0.1-0.1,0,0,0,0.1c0,0.1,0,0.1,0.1,0.1c0.1,0,0.1,0,0.1,0c0-0.1,0-0.1,0-0.2
				c0-0.1,0,0,0.1,0c0.1,0,0,0,0.1-0.1c0.1-0.1,0.1-0.1,0.1-0.1c0,0-0.1-0.1,0-0.1c0.1,0,0,0,0.1-0.1c0.1-0.1,0,0,0.2,0
				c0.2,0,0.2,0,0.2-0.1c0-0.1,0,0,0.1,0c0.1,0,0.1-0.1,0.1-0.1c0,0-0.1,0-0.1-0.1c0-0.1,0-0.1,0.2-0.2C79.9,4,79.9,4.1,80,4
				C80,4,80,4,80.1,4c0.1,0,0.1,0,0.2,0c0.1,0,0.1,0,0.2,0c0.1,0,0.1,0,0.1-0.1c0-0.1,0,0,0.1,0c0.1,0,0.2,0,0.3-0.1
				c0.1,0,0,0,0,0.1c0,0,0,0,0.2,0c0.1,0,0,0,0,0.1c0,0-0.1,0-0.1,0c-0.1,0-0.1,0-0.1,0c0,0-0.2,0.1-0.2,0.1s0,0-0.1,0.1
				s0,0.1,0,0.1c0,0,0.1,0.1,0.1,0.1c0,0,0.1,0,0.2,0C81,4.1,81,4.1,81,4c0,0,0,0,0-0.1c0,0,0.1,0,0.1,0s0,0,0.1,0c0,0,0,0,0.1,0
				c0.1,0,0.1,0,0.1,0c0,0,0,0,0.2,0c0.1,0,0.1,0,0-0.1c0-0.1,0,0-0.1,0c-0.1,0,0,0,0,0c0,0,0,0-0.2,0c-0.1,0-0.2,0-0.2-0.1
				c0,0,0,0-0.1-0.1c-0.1,0-0.1,0-0.1-0.1c0-0.1,0,0-0.1,0c-0.1,0,0,0,0-0.1c0-0.1,0-0.1,0.1-0.1c0,0-0.1,0-0.1,0
				c-0.1,0-0.1,0-0.1,0c0,0,0,0-0.1,0c-0.1,0,0,0,0,0c0,0,0,0,0.1,0c0.1,0,0.1,0,0.1,0l0.1,0c0,0,0.1,0,0.2,0c0.1,0,0.1,0,0-0.1
				C81,3,81,3,80.9,3c-0.1,0-0.4,0.1-0.4,0.1s-0.2,0-0.2,0.1c-0.1,0-0.1,0.1-0.2,0.1c-0.1,0.1-0.1,0-0.1-0.1C80,3.1,80.1,3.1,80.2,3
				s0.1,0,0.2,0c0.1,0,0.1,0,0.2-0.1c0.1-0.1,0.1,0,0.2-0.1c0.1,0,0.3,0,0.3,0s0.2,0,0.6,0c0.3,0,0.2,0,0.4-0.1s0.1-0.1,0.3-0.1
				c0.2,0,0.1,0,0.1,0s0.1,0,0.1-0.1c0.1-0.1,0,0,0-0.1c0-0.1,0-0.1-0.1-0.1c-0.1,0-0.1,0-0.1-0.1c0-0.1,0,0-0.2,0
				c-0.2,0-0.2,0.1-0.3,0.1c-0.1,0-0.1,0-0.1,0c0,0,0.1-0.1,0.1-0.1s0.1,0,0.2,0c0.1,0,0.1,0,0.1-0.1c0.1,0,0.1,0,0-0.1
				c-0.1,0,0-0.1-0.1,0c-0.1,0-0.1,0-0.2-0.1c0-0.1,0,0-0.1,0c-0.1,0-0.1,0-0.1-0.1c0-0.1-0.1,0-0.2,0s0-0.1,0-0.1c0-0.1,0,0,0-0.1
				c0-0.1,0,0-0.2-0.1c-0.2-0.1-0.2-0.1-0.3-0.2c-0.1-0.1-0.1,0-0.1,0c0,0-0.1,0.1-0.1,0.2c0,0-0.1,0-0.2,0.1c-0.1,0.1-0.1,0-0.1,0
				s-0.1-0.1-0.2-0.1c-0.1-0.1,0,0-0.1-0.1c-0.1-0.1,0-0.1,0-0.2c0-0.1,0,0-0.1,0c-0.1,0-0.1,0-0.1-0.1s-0.1,0-0.2-0.1
				c-0.1-0.1-0.1,0-0.2,0c-0.1,0-0.2,0-0.4,0c-0.2,0,0,0.1-0.1,0.1c0,0.1-0.1,0-0.1,0.1c0.1,0.1-0.1,0.1-0.2,0.1s0,0,0.2,0.2
				c0.2,0.1,0,0.1,0,0.2C78.9,2,78.7,2,78.6,2.1c-0.2,0-0.2,0-0.1,0.1c0.1,0.1,0,0.3,0,0.3l-0.1,0.3c0,0-0.1,0.2-0.2,0.2
				c0,0,0,0,0,0c0,0,0,0,0,0c0,0,0,0,0,0C78,3,78,2.7,78,2.7s-0.1-0.2-0.1-0.3c0-0.1,0-0.2,0-0.2c0,0,0-0.1,0.1-0.2
				c0.1-0.1-0.1,0-0.2,0c-0.1,0-0.1,0-0.2,0c-0.1,0-0.1,0-0.2-0.1c-0.2-0.1-0.1,0-0.3-0.1c-0.1-0.1-0.3,0-0.4,0c-0.1,0,0-0.1,0-0.2
				s0-0.1-0.1-0.1c0,0,0.1-0.1,0.3-0.2c0.3-0.1,0.2-0.2,0.4-0.2c0.2,0,0.1-0.1,0.3-0.1C77.8,1,78,1.1,78,1C78.1,1,78.1,1,78.2,0.9
				c0.1-0.1,0.1-0.1,0.1-0.1c0,0,0.2,0,0.2,0c0.1,0,0.2-0.1,0.4-0.1c0.1-0.1,0-0.1,0-0.2c0-0.1,0.3,0.1,0.4,0.1
				c0.1,0,0.1-0.1,0.1-0.1h0c0,0,0,0,0,0.1c0,0.1,0,0,0.1,0c0.1,0,0.1,0,0.2,0.1c0.1,0,0,0,0,0c0,0-0.2,0.1-0.2,0.1s-0.1,0-0.1,0
				c0.1,0,0.1,0,0.2,0c0.1,0,0.1,0,0.1-0.1c0.1-0.1,0,0,0.1,0c0.1,0,0.1,0,0.1,0c0,0-0.1,0-0.1,0.1c-0.1,0-0.1,0-0.1,0.1
				c0,0-0.2,0.1-0.2,0.1s-0.3,0-0.3,0.1c0,0,0.1,0.1,0.2,0.1c0.1,0,0.2,0,0.3,0c0.2,0,0.1,0.1,0.2,0.1c0.1,0.1,0.1,0.1,0.1,0
				c0.1,0,0.1,0,0.1,0l0.4,0c0,0,0.2,0,0.2,0c0.1,0-0.2,0-0.2,0S80.5,1,80.4,1c-0.1-0.1,0.3,0,0.3,0l0.2,0c0,0,0.1,0,0.1-0.1
				c0,0,0-0.1-0.1-0.1c-0.1,0-0.2,0-0.2,0c-0.1,0,0-0.1,0-0.1c0,0,0.3,0.1,0.3,0.1s0.1,0,0.2,0c0.1-0.1,0.1-0.1,0.2-0.1
				c0,0-0.3-0.1-0.3-0.1l-0.3,0l-0.2-0.1c0,0,0,0,0.1-0.1c0.1-0.1-0.1,0-0.1,0l-0.2,0l-0.2,0l-0.2-0.1L80,0.3c0,0,0.1,0,0.2-0.1
				c-0.3,0-0.3,0.1-0.4,0.1c-0.1,0-0.2,0-0.3,0.1c0,0-0.1,0-0.2,0c-0.1,0-0.2,0-0.3,0C79,0.3,79,0.5,79,0.4c0-0.1,0,0-0.2,0
				c-0.1,0-0.2,0.1-0.1,0.1c0.1,0,0.1,0,0.1,0.1c0,0.1-0.1,0.1-0.2,0.1c-0.1,0-0.1,0-0.1,0.1c0,0,0,0.1-0.1,0c0,0,0,0,0,0
				c0,0,0,0,0.1-0.1c0.1,0,0-0.1-0.1-0.1c-0.1,0-0.2,0.1-0.3,0.1c-0.1,0,0.1-0.1,0.1-0.2c0.1-0.1-0.1,0-0.2,0
				c-0.1,0-0.2,0.1-0.2,0.2c0,0.1-0.1,0.1-0.2,0.1s-0.2,0-0.4,0.1s-0.2,0-0.3,0c-0.1,0,0-0.1,0.1-0.1s0.1,0,0.2,0
				c0.1,0,0.1,0,0.2-0.1c0,0-0.1,0-0.2,0c-0.2,0-0.4,0.1-0.5,0.1s0,0.1,0,0.1c0,0.1-0.1,0.1-0.2,0s-0.1,0-0.2,0c-0.1,0-0.1,0-0.1,0
				c-0.4,0.2-0.9,0.4-1.3,0.6c-0.4,0.2-0.9,0.5-1.3,0.7c-0.1,0.1-0.3,0.2-0.4,0.3c-0.4,0.3-0.7,0.6-0.8,0.7c-0.1,0.1,0,0.1-0.1,0.2
				c-0.1,0.1,0,0.1-0.1,0.2c0,0,0,0-0.1,0.1c-0.1,0.1-0.1,0.2-0.2,0.2c-0.1,0.1-0.1,0.2-0.3,0.4c-0.2,0.2-0.3,0.3-0.5,0.6
				c-0.2,0.3-0.2,0.3-0.3,0.5c-0.1,0.1-0.1,0.1-0.1,0.3c0,0.1,0,0.2-0.1,0.3c-0.1,0,0,0.1-0.1,0.2c-0.1,0.2-0.1,0.2,0.1,0.3
				c0.1,0.1,0.1,0,0.1,0.2c0,0.1,0,0.2,0,0.2c0,0,0,0.1,0,0.1c-0.1,0.2,0,0.3-0.1,0.5c-0.1,0.1,0.1,0.1,0.1,0.3
				c0,0.2-0.1,0.2-0.2,0.2c-0.1,0,0,0.1,0.1,0.2c0.1,0.1,0.2,0.1,0.1,0.2c-0.1,0.1,0,0.3,0.1,0.4c0.1,0.1,0,0.2,0.1,0.2
				c0-0.1,0.1-0.1,0.1-0.2s0-0.1-0.1-0.1c-0.1,0,0-0.1,0-0.2c0-0.1,0-0.1,0-0.2c0-0.1,0-0.2-0.1-0.3c-0.1-0.1,0-0.1,0-0.2
				c0-0.2,0.1-0.2,0-0.3c0-0.1,0-0.2,0.1-0.4c0.1-0.1,0-0.1,0.1,0c0,0,0.1,0.1,0.1,0.2c0,0.1,0,0.1-0.1,0.2c0,0.1,0,0.2-0.1,0.2
				c0,0,0,0.1,0,0.2c0,0.1,0,0.1,0.1,0.1c0.1,0,0,0,0,0.1c0,0.1,0.1,0.1,0,0.2c0,0.1,0,0.2,0.1,0.3c0.1,0.1,0.1,0.1,0.1,0.2
				c0,0.1,0.1,0.1,0.1,0.3c0,0.2,0.1,0.2,0.1,0.3c0,0.1,0,0.1,0,0.2C71,9.5,71,9.6,71,9.7c0,0.1,0.2,0.2,0.2,0.3
				c0,0.1,0.1,0.2,0.3,0.2c0.2,0,0.1,0,0.1,0.1c0.1,0.1,0.2,0.2,0.2,0.2c0.1,0,0.1,0,0.3,0.1c0.2,0.1,0.1,0.1,0.1,0.1
				c0.1,0,0.1,0,0.2,0.1c0.2,0.1,0.1,0,0.2,0c0.1-0.1,0.1-0.2,0.3-0.2c0.2,0,0,0,0.2,0.1c0.2,0,0,0,0.1,0.1c0,0.1,0.2,0.2,0.3,0.3
				c0,0,0.1,0.1,0.1,0.1c0.1,0.2,0.2,0.1,0.4,0.1c0,0,0.1,0,0.1,0c0,0,0,0,0,0.1c0,0.1,0,0.1,0.2,0.1s0.2,0,0.3-0.1
				c0.1-0.1,0,0,0,0.1c0,0.1,0,0.1,0.1,0.2c0.1,0.1,0.1,0.3,0.3,0.3c0.2,0,0-0.1,0-0.2c0-0.1,0.2,0.2,0.2,0.2c0.1,0.1,0,0-0.1,0
				c-0.1,0,0,0-0.1,0c-0.1,0,0,0.1,0,0.2c0,0.1,0,0.2,0.2,0.1c0.2,0,0.2,0.1,0.2,0.1l0.1,0.1c0,0,0,0.1,0,0.1s0,0.1,0.1,0.1
				c0.1,0.1,0.2,0,0.2,0S75.9,13,76,13c0.1,0,0,0,0.1,0.1c0.1,0.1,0,0.1,0.1,0.2c0,0.1,0,0,0.1,0c0.1,0,0.1-0.1,0.1-0.1l0-0.1
				l-0.1-0.1c0,0,0.1,0,0.2,0c0.1,0,0.1-0.1,0.2-0.1c0.1,0,0.3,0.1,0.3,0.1c0,0.1,0,0.1,0,0.2c0,0.1,0.1,0.1,0.1,0.2
				c0,0.1,0.1,0.2,0.1,0.2c0,0,0.1,0.1,0,0.2c-0.1,0.1,0,0.3,0,0.4c-0.1,0.1,0,0.2,0,0.3c0,0.1-0.1,0.2-0.2,0.2c0,0-0.2,0-0.2,0.1
				c0,0.1-0.1,0.1-0.1,0.1s0,0,0,0.1c0,0,0,0-0.1,0.1c-0.1,0.1-0.1,0-0.3,0c-0.2,0-0.1,0,0,0.1c0.1,0.1,0,0-0.1,0.1
				c0,0,0,0.1-0.1,0.2c0,0.1-0.1,0-0.1,0.1c0,0.1,0,0.2,0,0.3c-0.1,0.1,0,0.1,0,0.1c0.1,0.1,0.1,0,0.2,0.1c0.1,0.1,0,0.2-0.1,0.2
				s0,0-0.1,0.1c-0.1,0.1,0,0-0.2,0.2c-0.1,0.2,0,0.1,0.1,0.2s0,0.2,0,0.2c-0.1,0,0.1,0.1,0.3,0.2c0.2,0.2,0.1,0,0.1,0.2
				c0,0.1,0,0.1,0.2,0.2c0.1,0.1,0.2,0.5,0.3,0.6c0.1,0.1,0.1,0.2,0.1,0.3c0,0.1,0,0.1,0.1,0.1c0.1,0,0.1,0.2,0.3,0.3
				c0.1,0.1,0.1,0.1,0.1,0.2c0,0.1,0,0.1,0,0.2c0,0.1,0.1,0.1,0.3,0.3c0.2,0.1,0.3,0.2,0.7,0.4c0.4,0.2,0.1,0.1,0.3,0.2
				c0.2,0.1,0,0.1,0.1,0.1c0,0,0.2,0,0.2,0.1c0,0,0.1,0,0.1,0.1c0,0,0,0,0,0.1c0,0.1,0,0.1,0.1,0.3c0,0.2,0,0.1,0,0.3
				c0,0.2,0,0.1,0,0.3c0,0.2,0,0.3-0.1,0.3c-0.1,0.1-0.1,0.1,0,0.1c0,0,0,0.1,0.1,0.2c0,0.2,0,0.2,0,0.3c0,0.1,0,0.1,0,0.2
				c-0.1,0.1,0,0.1,0,0.2c0,0.1,0,0.1-0.1,0.3c-0.1,0.1,0,0.1,0,0.3c0,0.2-0.1,0.1-0.1,0.3c0,0.1,0.1,0.2,0.1,0.3c0,0.1,0,0.1,0,0.2
				c0,0.1-0.1,0.3-0.1,0.4c0,0.1,0,0.1-0.1,0.2c-0.1,0.1-0.1,0-0.1,0.1s0,0-0.1,0.1c-0.1,0,0,0,0,0.1c0,0.1,0,0.1,0.1,0.2
				c0,0.1,0,0.1,0,0.1s0,0,0,0.1c0,0.1,0,0-0.1,0.1c0,0.1,0,0.1,0,0.2c0,0.1,0,0,0,0.1c0,0.1,0,0.1,0,0.1c0,0,0,0.1-0.1,0.1
				c0,0.1,0,0,0,0.1c0,0,0.1,0,0.1,0c0.1,0,0,0,0,0c0,0,0.1-0.1,0.1-0.1s0-0.1,0.1-0.2c0.1-0.1,0.1,0,0.1,0l0,0.1c0,0,0,0.1-0.1,0.1
				c0,0.1,0,0.1,0,0.1c0,0.1,0,0.1,0,0.2c0,0.1,0,0.1-0.1,0.1s0,0-0.1-0.1c0,0,0-0.1,0-0.1c0-0.1,0,0,0,0.1c0,0-0.1,0-0.1,0.1
				c0,0.1-0.1,0.1-0.1,0.1c-0.1,0-0.1,0-0.3,0s0.1,0,0.2,0c0.1,0,0.2,0,0.2,0c0.1,0,0,0,0.1,0c0,0,0.1,0,0.1,0c0.1,0,0,0,0,0.1
				c0,0,0,0-0.1,0.1c0,0,0,0.1,0,0.1s0,0.1,0,0c0,0,0,0-0.1,0c0,0-0.1,0-0.1,0c0,0,0,0.1,0,0.1s0,0,0.1,0c0,0,0,0.1,0.1,0.1
				c0,0,0,0.1,0,0.1c0,0,0,0,0,0c0,0,0,0,0,0c0,0,0.1,0,0.1,0l0,0c0,0,0,0-0.1,0c0,0,0,0,0,0c0,0,0.1,0,0.1,0s0.1,0,0.1,0
				c0,0,0.1,0.1,0.1,0.1s0,0.1,0,0.1c0,0,0,0-0.1,0c0,0,0,0,0,0.1c0,0,0,0.1,0,0.1l0.1,0.1l0.1,0.1l0.1,0l0.1,0l0,0c0,0,0,0.1,0,0.1
				s0.2,0.1,0.2,0.1s0.1,0,0.1,0c0,0,0.1,0,0.2,0c0,0,0,0,0,0c0.1,0,0.2,0,0.2,0l0.2,0c0,0,0,0,0.1,0c0,0-0.1,0-0.1-0.1
				c0,0-0.1-0.1-0.2-0.1c0,0-0.1,0-0.1,0c0,0-0.1-0.1-0.1-0.1c0,0-0.1-0.1-0.1-0.2c-0.1,0-0.1-0.1,0-0.2c0,0,0,0,0.2,0
				c0.1,0,0.1,0,0.1-0.1c0-0.1,0-0.1,0.1-0.1c0.1-0.1,0.1,0,0.3-0.2c0.1-0.2,0-0.1,0-0.1c0,0-0.1,0-0.3,0c-0.2-0.1,0-0.1,0-0.2
				c0.1-0.1,0.2-0.1,0.3-0.1c0.1,0,0,0,0.1-0.1c0.1,0,0,0,0.1-0.1c0-0.1,0-0.1,0.1-0.1s-0.1-0.1,0-0.1c0-0.1-0.1,0,0-0.1
				c0-0.1-0.1,0,0-0.2c0.1-0.1,0.1,0.1,0.5,0.1c0.3,0,0.2-0.1,0.2-0.1s-0.1-0.1,0-0.2c0.1-0.1,0-0.1,0-0.2c0-0.1,0.1,0,0.2,0
				c0.1,0,0.3,0,0.8-0.1c0.5-0.2,0.5-0.4,0.4-0.4c-0.1,0-0.1,0-0.1-0.1s0-0.1,0-0.1c0,0-0.2-0.1-0.2-0.2c0,0,0-0.1,0.1-0.1
				c0.1,0,0.3,0.1,0.3,0.1s0.2,0,0.4,0c0.2,0,0.2,0,0.3-0.1c0.1,0,0.1-0.1,0.2-0.2c0.1-0.1,0.2-0.2,0.3-0.3c0.1-0.1,0.1-0.1,0.1-0.1
				c0,0,0-0.1,0-0.1c0,0,0.1-0.1,0.1-0.1l0.1-0.2c0,0,0,0,0.1,0c0,0,0.1,0.1,0,0.1c0,0-0.1,0.1-0.2,0.1c0,0,0,0.1,0,0.1
				c0,0,0.1,0,0.1,0c0.2-0.1,0.2-0.2,0.3-0.3c0.1-0.1,0.2-0.2,0.4-0.2c0.2-0.1,0.1-0.1,0.1-0.3c0-0.2,0-0.2,0.1-0.3
				c0.1-0.2,0.1-0.1,0.3-0.2c0.2-0.1,0.2-0.2,0.4-0.3c0.2-0.1,0.2-0.2,0.3-0.1c0.1,0,0.1,0,0.2-0.1c0.1-0.1,0.2-0.1,0.5,0
				c0.3,0,0.1-0.1,0.2-0.1c0.1-0.1,0.1-0.1,0.2-0.2c0-0.1,0.1-0.2,0.2-0.2c0.1-0.1,0.1-0.1,0.2-0.2c0-0.1,0.1-0.1,0.2-0.2
				c0.1-0.1,0.1-0.3,0.1-0.2c0,0.1,0-0.1,0.1-0.3c0.1-0.2,0.1-0.3,0.2-0.5c0-0.2,0.1-0.4,0.1-0.6c0-0.2,0.1-0.1,0.1,0
				c0,0.1,0.1-0.1,0.2-0.3c0.2-0.2,0.2-0.3,0.3-0.4c0.1-0.1,0.1-0.1,0.2-0.3c0.1-0.1,0.1-0.3,0.3-0.5s0.1-0.5,0-0.6
				C89.4,16.6,89.3,16.5,89.1,16.6z M79.8,2.9c0,0,0,0,0.1,0c0,0,0.1,0,0.1,0.1S79.9,3,79.8,2.9C79.7,3,79.8,3,79.8,2.9z M79.2,2.7
				c0,0,0,0,0.1-0.1c0,0,0,0.1,0,0.2c0,0.1-0.1,0.1-0.1,0.1c0,0-0.1-0.1-0.1-0.1L79.2,2.7z M79,3.1C79.1,3,79.1,3.1,79,3.1l0,0.1
				C79,3.2,78.9,3.2,79,3.1C78.9,3.1,78.9,3.1,79,3.1z M78.8,2.2c0.1,0,0.1,0,0.2,0c0,0,0,0.1-0.1,0.2c-0.1,0.1-0.1,0-0.1,0
				C78.7,2.3,78.7,2.3,78.8,2.2C78.6,2.2,78.7,2.2,78.8,2.2z M80.1,0.9C80.1,0.9,80.1,0.9,80.1,0.9C80,0.9,80.1,0.9,80.1,0.9
				L80.1,0.9C80.1,0.9,80.2,0.9,80.1,0.9L80.1,0.9z M80.1,0.7C80.2,0.7,80.2,0.7,80.1,0.7c0.1,0,0.2,0.1,0.2,0.1
				C80.3,0.8,80.2,0.8,80.1,0.7c0.1,0.1,0,0.1,0,0.1c0,0.1-0.1,0-0.1,0C80.1,0.8,80.1,0.7,80.1,0.7z M77.9,4l0.2,0L78.3,4l0.1-0.1
				l0.1,0l0,0c0,0,0,0.1-0.1,0.2c0,0.1-0.2,0-0.2,0s-0.1,0-0.3,0c-0.1,0-0.1,0.1-0.1,0.1l-0.2,0.1c0,0-0.2,0-0.4,0.2
				c-0.2,0.1-0.2,0-0.2,0s-0.1-0.1,0-0.2c0.1-0.1,0.1-0.1,0.1-0.1c0,0,0,0.1,0,0.1c0,0,0.1,0,0.2,0c0.1,0,0.1,0,0.2,0
				c0.1,0,0.1,0,0.2-0.1c0.1,0,0.1-0.1,0.1-0.1l0-0.1L77.9,4z M76.4,2.8C76.5,2.7,76.4,2.8,76.4,2.8c0.1,0,0.1,0.1,0.2,0.2
				c0,0.1,0,0-0.2,0C76.2,3,76.4,2.9,76.4,2.8z M75.9,2.8C75.9,2.7,75.9,2.8,75.9,2.8l0.3,0.1l-0.1,0.1C76.1,2.9,75.8,2.9,75.9,2.8z
				 M75.7,3.4l0.4-0.1l0.4-0.1c0,0,0.2-0.1,0.3,0c0.1,0.1,0.1,0.1,0.1,0.2C77,3.4,77,3.5,77,3.5s-0.2,0.1,0.1,0.1
				c0.3,0,0.3-0.1,0.5,0c0.1,0.1,0.1,0,0.1,0.1c0,0.1,0,0.2-0.1,0.1c-0.1,0-0.2-0.1-0.2,0c0,0-0.1,0.2-0.1,0.2s-0.1,0.1-0.1,0.2
				c0,0-0.1,0-0.1,0s0-0.2,0-0.2S77,4.1,76.9,4c-0.1,0,0.1-0.1,0.1-0.2c0-0.1-0.1-0.2-0.1-0.2c-0.1,0,0-0.1-0.1,0
				c-0.1,0.1-0.2,0.2-0.2,0.2s-0.2,0-0.2,0.2c0,0.1,0,0.1,0,0.2c-0.1,0.1-0.1,0.2-0.1,0.2s-0.1,0.1-0.1,0c0,0,0-0.4,0-0.4l0.1-0.3
				l0.3-0.1c0,0,0.1,0,0.2,0c0.1,0,0.1,0,0.2,0c0,0,0.1,0,0-0.1c-0.1-0.1-0.3,0-0.3,0c0,0,0,0-0.1,0c-0.1,0,0-0.1-0.2-0.1
				c-0.2,0-0.3,0.1-0.3,0.1l-0.2,0c0,0-0.1,0-0.1,0C75.7,3.5,75.7,3.4,75.7,3.4z M75.5,3.1C75.4,3.2,75.5,3.1,75.5,3.1
				C75.3,3,75.4,3,75.5,3C75.5,3,75.5,3.1,75.5,3.1C75.6,3.1,75.5,3.1,75.5,3.1z M75.3,1.9c0-0.2,0-0.1,0.1-0.2l0.1,0.1
				c0,0-0.1,0.1-0.2,0.2C75.2,2.2,75.3,2.1,75.3,1.9z M75.3,2.5c0-0.1,0-0.1,0.1-0.1c0,0,0,0,0,0.1c0,0.1,0,0.2,0,0.2
				s-0.1,0.2-0.1,0.2c0,0,0,0,0-0.2C75.4,2.6,75.3,2.6,75.3,2.5z M74.9,1.9c0,0-0.1,0-0.2,0C74.7,1.8,74.7,1.8,74.9,1.9L74.9,1.9z
				 M75.1,2.7c0,0.1,0,0.2,0,0.3c0,0.1-0.1,0-0.1,0s0-0.1,0.1-0.2c0-0.1-0.1-0.1-0.1-0.1s0-0.1,0.1-0.2c0-0.1,0-0.1,0.1-0.1
				C75.1,2.4,75.1,2.6,75.1,2.7z M74.7,1.7c0.1,0,0.1-0.1,0.3-0.2l0.1,0.1c0,0-0.1,0.1-0.2,0.2c-0.1,0.1-0.2,0-0.3,0
				C74.5,1.7,74.6,1.7,74.7,1.7z M74.2,10.2C74.2,10.2,74.2,10.2,74.2,10.2C74.2,10.2,74.2,10.2,74.2,10.2
				C74.2,10.2,74.2,10.2,74.2,10.2z M79.6,18.2C79.6,18.2,79.6,18.2,79.6,18.2C79.6,18.2,79.6,18.2,79.6,18.2
				C79.6,18.2,79.6,18.2,79.6,18.2z M79.4,16.3C79.4,16.3,79.4,16.3,79.4,16.3C79.4,16.3,79.4,16.3,79.4,16.3
				C79.4,16.3,79.4,16.3,79.4,16.3z M79.8,18.6c0,0.1,0,0,0,0.1c0,0.1,0,0.1,0,0.2c0,0.1,0,0,0,0.1c0,0,0,0.1,0,0.1c0,0,0,0-0.1,0.1
				c0,0,0,0.1,0,0.1c0,0.1,0,0,0,0.1c0,0,0,0,0,0c0,0,0,0.1,0.1,0.1c0.1,0.1,0,0.1,0,0.2c0,0,0,0-0.1-0.1c0,0,0,0.1,0,0.1
				c0,0,0,0-0.1,0c0,0,0,0,0,0c0,0,0-0.1,0-0.1s0,0,0,0c0,0,0-0.1,0-0.1c0-0.1-0.1-0.1-0.1-0.1c0,0,0,0,0,0c-0.1-0.1,0-0.1,0-0.2
				c0-0.1,0.1,0,0.2,0.1c0,0,0.1,0,0.1,0.1c0-0.1,0,0,0-0.1c0-0.1,0-0.1,0-0.1c0,0,0,0,0.1-0.1c0,0,0-0.1,0-0.1c0,0,0,0,0-0.1
				c0-0.1,0-0.1,0-0.2C79.8,18.7,79.7,18.7,79.8,18.6c0-0.1,0.1-0.1,0-0.2C79.8,18.5,79.8,18.6,79.8,18.6z M80.3,20.3
				c0,0.1-0.1,0-0.1-0.1c-0.1-0.1,0-0.1,0.1-0.1C80.3,20.1,80.3,20.3,80.3,20.3z M82.3,15.7c-0.1-0.1-0.1-0.1-0.1-0.1
				c0,0,0.1,0,0.2,0c0.1,0,0,0.2,0,0.3C82.6,15.9,82.5,15.8,82.3,15.7z M82.4,14.6c-0.1-0.1-0.1-0.2,0-0.3c0.1-0.1,0.1-0.1,0.1-0.2
				c0-0.1-0.1-0.2-0.2-0.3c0.1,0.1,0.1,0.2,0.2,0.3c0.1,0.1,0,0.1-0.1,0.2C82.4,14.4,82.4,14.5,82.4,14.6c0.1,0.1,0.1,0.2,0.2,0.3
				c0.1,0,0.1,0.1,0.2,0.1c-0.1,0-0.1,0-0.2-0.1C82.5,14.8,82.5,14.7,82.4,14.6z M83.7,14.7C83.7,14.7,83.7,14.7,83.7,14.7
				C83.7,14.7,83.7,14.7,83.7,14.7C83.7,14.7,83.7,14.7,83.7,14.7C83.7,14.7,83.7,14.7,83.7,14.7z M83.3,14.7L83.3,14.7
				c0.1,0,0.2,0.1,0.3,0.1C83.6,14.8,83.4,14.7,83.3,14.7L83.3,14.7C83.3,14.7,83.3,14.7,83.3,14.7z M83.4,21.3
				C83.4,21.3,83.4,21.3,83.4,21.3C83.4,21.3,83.4,21.3,83.4,21.3C83.4,21.3,83.4,21.3,83.4,21.3C83.4,21.3,83.4,21.3,83.4,21.3
				C83.4,21.3,83.4,21.3,83.4,21.3C83.4,21.3,83.4,21.3,83.4,21.3c-0.1,0-0.1,0-0.1,0c0,0,0,0,0,0c0,0,0,0,0,0c0,0,0,0,0,0
				c0,0,0,0,0,0c0,0,0,0,0,0c0,0,0,0,0,0c0,0-0.1-0.1-0.1-0.1c0,0,0,0,0,0c0,0,0,0,0,0c0,0,0,0,0,0c0,0,0,0,0,0c0,0,0,0,0,0
				c0,0,0,0,0,0c0,0,0,0,0,0c0,0,0,0,0,0c0,0,0,0,0,0c0,0,0,0,0,0c0.1,0,0.1-0.1,0.1,0C83.4,21.2,83.5,21.3,83.4,21.3
				C83.5,21.3,83.6,21.4,83.4,21.3z M83.7,22.1C83.7,22.1,83.7,22.1,83.7,22.1C83.7,22.1,83.7,22.1,83.7,22.1
				C83.7,22.1,83.7,22.1,83.7,22.1z M83.7,15.8c0-0.1-0.1,0-0.2-0.1c-0.1-0.1-0.1-0.1,0-0.1C83.5,15.6,83.6,15.7,83.7,15.8
				C83.8,15.8,83.7,15.9,83.7,15.8z M84.1,14.7c0,0-0.1-0.1-0.2-0.1c0,0,0,0,0,0c0,0,0,0,0,0C84,14.6,84.1,14.7,84.1,14.7L84.1,14.7
				C84.1,14.7,84.2,14.7,84.1,14.7C84.2,14.7,84.1,14.7,84.1,14.7z M84.4,14.7C84.4,14.7,84.4,14.7,84.4,14.7
				C84.4,14.7,84.4,14.7,84.4,14.7C84.4,14.7,84.4,14.7,84.4,14.7z M85.5,16.7c0-0.1,0-0.1-0.1-0.2c-0.1-0.1,0-0.1,0-0.3
				c0,0,0,0.1,0,0.2C85.5,16.5,85.5,16.5,85.5,16.7C85.6,16.8,85.6,16.8,85.5,16.7z M86.1,20.8c-0.1,0,0,0-0.1,0.1
				c0,0.1,0,0.1,0-0.1c0-0.1-0.1-0.1,0-0.2c0,0,0,0,0.1,0C86.2,20.7,86.2,20.8,86.1,20.8z M87.7,17.8c-0.1,0-0.1,0-0.2,0
				c-0.1,0,0,0.1-0.1,0.1c-0.1,0-0.1,0-0.2,0.1c-0.1,0.1-0.1,0.2-0.2,0.1c0,0,0,0,0-0.1c0.1-0.1,0.1-0.1,0.2-0.2
				c0.1-0.2,0.1-0.1,0.2-0.1c0.1,0,0.1,0,0.2-0.1c0.1-0.1,0.1,0,0.1,0C87.8,17.8,87.8,17.8,87.7,17.8z"/>
		</g>
		<path class="st1" d="M80.6,29.1c-0.2,0-0.5,0-0.7,0c-0.4,0-0.9-0.1-1.3-0.2l-0.1,0c-0.1,0-0.2,0-0.2-0.1l-0.1,0L78,28.7
			c-0.1,0-0.1,0-0.2-0.1c0,0-0.1,0-0.2-0.1l-0.1,0c-0.1,0-0.2-0.1-0.2-0.1c-0.4-0.2-0.8-0.4-1.2-0.7c-0.8-0.5-1.4-1.2-1.8-2.1
			c-0.2-0.4-0.4-0.8-0.5-1.3c-0.1-0.4-0.2-0.8-0.3-1.3l0-0.2l0-0.2c0,0,0-0.1,0-0.1l0-0.2c0,0,0-0.1,0-0.1l0-0.2c0-0.1,0-0.2,0-0.3
			l0-0.1c0-0.1,0-0.1,0-0.2l0-0.3l0-0.4l0-0.2c0.1-0.4,0.1-0.9,0.2-1.3c0.1-0.4,0.2-0.8,0.3-1.2c0.2-0.8,0.6-1.6,1-2.4
			c0.4-0.7,0.8-1.5,1.3-2.2c0.2-0.4,0.5-0.7,0.7-1c0.2-0.3,0.5-0.7,0.8-1l0.2-0.2l0.5-0.6l0.5-0.6l0.4-0.5c0.5-0.6,1.1-1.2,1.8-1.7
			c0.6-0.5,1.2-1.1,1.9-1.6c0.3-0.2,0.6-0.5,1-0.7l0,0l0.5-0.4c0.1,0,0.1-0.1,0.2-0.1l0.3-0.2c0.1-0.1,0.3-0.2,0.4-0.3l-2-1.4
			l11.2-2.5l-8.2,9.9V7.3c-0.6,0.4-1.2,0.8-1.8,1.2l-0.2,0.2l-0.6,0.4l-0.6,0.4l-0.4,0.4c-0.5,0.5-1.1,1-1.7,1.6L81,11.9l-0.5,0.5
			l-0.5,0.5l-0.2,0.2c-0.2,0.3-0.5,0.6-0.7,0.9c-0.2,0.3-0.5,0.6-0.7,0.9c-0.4,0.6-0.8,1.2-1.2,1.9c-0.2,0.3-0.3,0.6-0.5,1
			c-0.2,0.3-0.3,0.7-0.4,1c-0.1,0.3-0.2,0.7-0.3,1c-0.1,0.3-0.2,0.7-0.2,1.1l0,0.2l0,0.3l0,0.3c0,0.1,0,0.1,0,0.2l0,0.1
			c0,0.1,0,0.1,0,0.2l0,0.2c0,0,0,0.1,0,0.1l0,0.2c0,0,0,0.1,0,0.1l0,0.1l0,0.1c0,0.4,0.1,0.7,0.1,1c0.1,0.3,0.2,0.7,0.3,0.9
			c0.1,0.3,0.3,0.6,0.5,0.8c0,0.1,0.1,0.1,0.1,0.1l0,0.1c0,0,0,0,0,0l0,0c0,0,0,0.1,0.1,0.1l0.1,0.1l0.1,0.1c0,0,0.1,0.1,0.1,0.1
			c0.5,0.4,1.1,0.7,1.8,1c0.3,0.1,0.7,0.2,1,0.3c0.4,0.1,0.7,0.1,1.1,0.1c2.4,0.1,4.4-0.4,4.5-0.5l0.2,0.3c-0.7,0.5-1.4,0.9-2.3,1.1
			c-0.8,0.2-1.7,0.4-2.5,0.4C81,29.1,80.8,29.1,80.6,29.1z"/>
		<linearGradient id="SVGID_1_" gradientUnits="userSpaceOnUse" x1="73.8423" y1="14.9651" x2="94.0578" y2="14.9651">
			<stop  offset="0" style="stop-color:#E52026"/>
			<stop  offset="1" style="stop-color:#7B1315"/>
		</linearGradient>
		<path class="st2" d="M94.1,1.1l-9.6,2.1l1.8,1.3c-0.3,0.2-0.6,0.3-0.8,0.5l-0.3,0.2C85,5.3,85,5.4,84.9,5.4l-0.5,0.4
			c-0.3,0.2-0.7,0.5-1,0.7c-0.6,0.5-1.3,1-1.9,1.6c-0.6,0.6-1.2,1.1-1.7,1.7l-0.4,0.4l-0.4,0.5l-0.1,0.1L78.7,11l-0.2,0.2l-0.2,0.2
			l-0.2,0.2c-0.3,0.3-0.5,0.6-0.8,1c-0.2,0.3-0.5,0.7-0.7,1c-0.5,0.7-0.9,1.4-1.2,2.2c-0.4,0.7-0.7,1.5-0.9,2.3
			c-0.1,0.4-0.2,0.8-0.3,1.2c-0.1,0.4-0.2,0.8-0.2,1.2l0,0.2l0,0.1l0,0.1l0,0.3l0,0.3c0,0.1,0,0.2,0,0.3c0,0.1,0,0.2,0,0.3l0,0.2
			c0,0.1,0,0.1,0,0.2l0,0.2c0,0.1,0,0.1,0,0.2l0,0.2l0,0.2c0,0.4,0.1,0.9,0.2,1.3c0.1,0.4,0.3,0.8,0.5,1.2c0.4,0.8,1,1.5,1.7,2
			c0.4,0.2,0.7,0.5,1.1,0.6c0.1,0,0.2,0.1,0.3,0.1c0,0,0.1,0,0.2,0.1c0,0,0.1,0,0.2,0.1l0.2,0l0.2,0c0.1,0,0.2,0.1,0.3,0.1
			c0.4,0.1,0.8,0.2,1.2,0.2c0.4,0,0.8,0,1.2,0c0.8,0,1.6-0.2,2.4-0.4c1.1-0.3,1.8-0.8,2.2-1.1l0,0c-0.2,0.1-0.4,0.1-0.6,0.2
			c-0.2,0.1-0.4,0.1-0.6,0.2c-0.4,0.1-0.8,0.2-1.1,0.3c-0.8,0.1-1.5,0.2-2.3,0.2c-0.4,0-0.8-0.1-1.1-0.1c-0.4-0.1-0.7-0.2-1.1-0.3
			c-0.7-0.2-1.4-0.6-1.9-1c0,0-0.1-0.1-0.1-0.1l-0.1,0l0,0l-0.1-0.1l-0.1-0.1c0,0-0.1-0.1-0.1-0.1c0,0-0.1-0.1-0.1-0.1
			c-0.1-0.1-0.1-0.1-0.2-0.2c-0.2-0.3-0.4-0.6-0.5-0.9c-0.1-0.3-0.3-0.7-0.3-1c-0.1-0.3-0.1-0.7-0.1-1.1l0-0.1l0-0.1
			c0,0,0-0.1,0-0.1l0-0.1c0,0,0-0.1,0-0.1l0-0.1c0-0.1,0-0.2,0-0.3c0-0.1,0-0.2,0-0.3l0-0.3l0-0.3l0-0.1l0-0.1l0-0.1
			c0.1-0.4,0.2-0.7,0.3-1.1c0.1-0.4,0.2-0.7,0.4-1.1c0.1-0.4,0.3-0.7,0.4-1c0.2-0.3,0.3-0.7,0.5-1c0.4-0.7,0.8-1.3,1.2-1.9
			c0.2-0.3,0.5-0.6,0.7-0.9c0.2-0.3,0.5-0.6,0.7-0.9l0.2-0.2l0.2-0.2l0.2-0.2l0.1-0.1l0.1-0.1l0.4-0.4l0.4-0.4
			c0.5-0.5,1.1-1.1,1.7-1.6l0.4-0.4l0.4-0.4l0.1-0.1L84,8.8l0.2-0.2l0.2-0.2l0.2-0.2c0.7-0.6,1.5-1.1,2.3-1.5v2.9L94.1,1.1z"/>
	</g>
</g>
</svg>
